<?xml version="1.0" encoding="UTF-8" standalone="no"?>
<!DOCTYPE svg PUBLIC "-//W3C//DTD SVG 1.1//EN"
 "http://www.w3.org/Graphics/SVG/1.1/DTD/svg11.dtd">
<!-- Generated by graphviz version 2.36.0 (20140111.2315)
 -->
<!-- Title: GlobalRegistration::Utils::Timer::Timer Pages: 1 -->
<svg width="250pt" height="38pt"
 viewBox="0.00 0.00 250.00 38.00" xmlns="http://www.w3.org/2000/svg" xmlns:xlink="http://www.w3.org/1999/xlink">
<g id="graph0" class="graph" transform="scale(1 1) rotate(0) translate(4 34)">
<title>GlobalRegistration::Utils::Timer::Timer</title>
<polygon fill="white" stroke="none" points="-4,4 -4,-34 246,-34 246,4 -4,4"/>
<!-- Node1 -->
<g id="node1" class="node"><title>Node1</title>
<polygon fill="#bfbfbf" stroke="black" points="0,-0 0,-30 104,-30 104,-0 0,-0"/>
<text text-anchor="start" x="8" y="-18" font-family="Helvetica,sans-Serif" font-size="10.00">GlobalRegistration</text>
<text text-anchor="middle" x="52" y="-7" font-family="Helvetica,sans-Serif" font-size="10.00">::Utils::Timer::Timer</text>
</g>
<!-- Node2 -->
<g id="node2" class="node"><title>Node2</title>
<g id="a_node2"><a xlink:href="a00046.html#a064e144c1f9d4ae6b1ab2e0838a4278e" target="_top" xlink:title="GlobalRegistration\l::Utils::Timer::reset">
<polygon fill="white" stroke="black" points="140.5,-0 140.5,-30 241.5,-30 241.5,-0 140.5,-0"/>
<text text-anchor="start" x="148.5" y="-18" font-family="Helvetica,sans-Serif" font-size="10.00">GlobalRegistration</text>
<text text-anchor="middle" x="191" y="-7" font-family="Helvetica,sans-Serif" font-size="10.00">::Utils::Timer::reset</text>
</a>
</g>
</g>
<!-- Node1&#45;&gt;Node2 -->
<g id="edge1" class="edge"><title>Node1&#45;&gt;Node2</title>
<path fill="none" stroke="midnightblue" d="M104.014,-15C112.544,-15 121.462,-15 130.188,-15"/>
<polygon fill="midnightblue" stroke="midnightblue" points="130.31,-18.5001 140.31,-15 130.31,-11.5001 130.31,-18.5001"/>
</g>
</g>
</svg>
