<?xml version="1.0" encoding="UTF-8" standalone="no"?>
<!DOCTYPE svg PUBLIC "-//W3C//DTD SVG 1.1//EN"
 "http://www.w3.org/Graphics/SVG/1.1/DTD/svg11.dtd">
<!-- Generated by graphviz version 2.36.0 (20140111.2315)
 -->
<!-- Title: GlobalRegistration::AABB&lt; _Scalar, _Dim &gt; Pages: 1 -->
<svg width="138pt" height="324pt"
 viewBox="0.00 0.00 138.00 324.00" xmlns="http://www.w3.org/2000/svg" xmlns:xlink="http://www.w3.org/1999/xlink">
<g id="graph0" class="graph" transform="scale(1 1) rotate(0) translate(4 320)">
<title>GlobalRegistration::AABB&lt; _Scalar, _Dim &gt;</title>
<polygon fill="white" stroke="none" points="-4,4 -4,-320 134,-320 134,4 -4,4"/>
<!-- Node1 -->
<g id="node1" class="node"><title>Node1</title>
<polygon fill="#bfbfbf" stroke="black" points="0,-128.5 0,-207.5 130,-207.5 130,-128.5 0,-128.5"/>
<text text-anchor="start" x="8" y="-195.5" font-family="Helvetica,sans-Serif" font-size="10.00">GlobalRegistration</text>
<text text-anchor="middle" x="65" y="-184.5" font-family="Helvetica,sans-Serif" font-size="10.00">::AABB&lt; _Scalar, _Dim &gt;</text>
<polyline fill="none" stroke="black" points="0,-177.5 130,-177.5 "/>
<text text-anchor="start" x="8" y="-165.5" font-family="Helvetica,sans-Serif" font-size="10.00">+ Dim</text>
<polyline fill="none" stroke="black" points="0,-158.5 130,-158.5 "/>
<text text-anchor="start" x="8" y="-146.5" font-family="Helvetica,sans-Serif" font-size="10.00">+ AABB()</text>
<text text-anchor="start" x="8" y="-135.5" font-family="Helvetica,sans-Serif" font-size="10.00">+ extend()</text>
</g>
<!-- Node3 -->
<g id="node3" class="node"><title>Node3</title>
<g id="a_node3"><a xlink:href="a00023.html" target="_top" xlink:title="{GlobalRegistration\l::AABB\&lt; Scalar \&gt;\n|+ Dim\l|+ AABB()\l+ extend()\l}">
<polygon fill="white" stroke="black" points="16.5,-0.5 16.5,-79.5 113.5,-79.5 113.5,-0.5 16.5,-0.5"/>
<text text-anchor="start" x="24.5" y="-67.5" font-family="Helvetica,sans-Serif" font-size="10.00">GlobalRegistration</text>
<text text-anchor="middle" x="65" y="-56.5" font-family="Helvetica,sans-Serif" font-size="10.00">::AABB&lt; Scalar &gt;</text>
<polyline fill="none" stroke="black" points="16.5,-49.5 113.5,-49.5 "/>
<text text-anchor="start" x="24.5" y="-37.5" font-family="Helvetica,sans-Serif" font-size="10.00">+ Dim</text>
<polyline fill="none" stroke="black" points="16.5,-30.5 113.5,-30.5 "/>
<text text-anchor="start" x="24.5" y="-18.5" font-family="Helvetica,sans-Serif" font-size="10.00">+ AABB()</text>
<text text-anchor="start" x="24.5" y="-7.5" font-family="Helvetica,sans-Serif" font-size="10.00">+ extend()</text>
</a>
</g>
</g>
<!-- Node1&#45;&gt;Node3 -->
<g id="edge2" class="edge"><title>Node1&#45;&gt;Node3</title>
<path fill="none" stroke="orange" d="M65,-117.832C65,-105.255 65,-91.9038 65,-79.9209"/>
<polygon fill="orange" stroke="orange" points="61.5001,-118.168 65,-128.168 68.5001,-118.168 61.5001,-118.168"/>
<text text-anchor="middle" x="89.5" y="-101.5" font-family="Helvetica,sans-Serif" font-size="10.00"> &lt; Scalar &gt;</text>
</g>
<!-- Node2 -->
<g id="node2" class="node"><title>Node2</title>
<polygon fill="white" stroke="#bfbfbf" points="13.5,-247 13.5,-315 116.5,-315 116.5,-247 13.5,-247"/>
<text text-anchor="start" x="21.5" y="-303" font-family="Helvetica,sans-Serif" font-size="10.00">Eigen::AlignedBox&lt;</text>
<text text-anchor="middle" x="65" y="-292" font-family="Helvetica,sans-Serif" font-size="10.00"> _Scalar, _Dim &gt;</text>
<polyline fill="none" stroke="#bfbfbf" points="13.5,-285 116.5,-285 "/>
<text text-anchor="middle" x="65" y="-273" font-family="Helvetica,sans-Serif" font-size="10.00"> </text>
<polyline fill="none" stroke="#bfbfbf" points="13.5,-266 116.5,-266 "/>
<text text-anchor="middle" x="65" y="-254" font-family="Helvetica,sans-Serif" font-size="10.00"> </text>
</g>
<!-- Node2&#45;&gt;Node1 -->
<g id="edge1" class="edge"><title>Node2&#45;&gt;Node1</title>
<path fill="none" stroke="midnightblue" d="M65,-236.795C65,-227.15 65,-216.983 65,-207.541"/>
<polygon fill="none" stroke="midnightblue" points="61.5001,-236.997 65,-246.997 68.5001,-236.997 61.5001,-236.997"/>
</g>
</g>
</svg>
