<?xml version="1.0" encoding="UTF-8" standalone="no"?>
<!DOCTYPE svg PUBLIC "-//W3C//DTD SVG 1.1//EN"
 "http://www.w3.org/Graphics/SVG/1.1/DTD/svg11.dtd">
<!-- Generated by graphviz version 2.36.0 (20140111.2315)
 -->
<!-- Title: tripple Pages: 1 -->
<svg width="64pt" height="272pt"
 viewBox="0.00 0.00 64.00 272.00" xmlns="http://www.w3.org/2000/svg" xmlns:xlink="http://www.w3.org/1999/xlink">
<g id="graph0" class="graph" transform="scale(1 1) rotate(0) translate(4 268)">
<title>tripple</title>
<polygon fill="white" stroke="none" points="-4,4 -4,-268 60,-268 60,4 -4,4"/>
<!-- Node1 -->
<g id="node1" class="node"><title>Node1</title>
<polygon fill="#bfbfbf" stroke="black" points="-1,-1 -1,-69 57,-69 57,-1 -1,-1"/>
<text text-anchor="middle" x="28" y="-57" font-family="Helvetica,sans-Serif" font-size="10.00">tripple</text>
<polyline fill="none" stroke="black" points="-1,-50 57,-50 "/>
<text text-anchor="middle" x="28" y="-38" font-family="Helvetica,sans-Serif" font-size="10.00"> </text>
<polyline fill="none" stroke="black" points="-1,-31 57,-31 "/>
<text text-anchor="start" x="7" y="-19" font-family="Helvetica,sans-Serif" font-size="10.00">+ tripple()</text>
<text text-anchor="start" x="7" y="-8" font-family="Helvetica,sans-Serif" font-size="10.00">+ tripple()</text>
</g>
<!-- Node2 -->
<g id="node2" class="node"><title>Node2</title>
<polygon fill="white" stroke="#bfbfbf" points="13.5,-206.5 13.5,-263.5 42.5,-263.5 42.5,-206.5 13.5,-206.5"/>
<text text-anchor="middle" x="28" y="-251.5" font-family="Helvetica,sans-Serif" font-size="10.00">int</text>
<polyline fill="none" stroke="#bfbfbf" points="13.5,-244.5 42.5,-244.5 "/>
<text text-anchor="middle" x="28" y="-232.5" font-family="Helvetica,sans-Serif" font-size="10.00"> </text>
<polyline fill="none" stroke="#bfbfbf" points="13.5,-225.5 42.5,-225.5 "/>
<text text-anchor="middle" x="28" y="-213.5" font-family="Helvetica,sans-Serif" font-size="10.00"> </text>
</g>
<!-- Node2&#45;&gt;Node1 -->
<g id="edge1" class="edge"><title>Node2&#45;&gt;Node1</title>
<path fill="none" stroke="#404040" d="M28,-206.469C28,-174.131 28,-120.008 28,-81.4231"/>
<polygon fill="none" stroke="#404040" points="28.0001,-81.2384 24,-75.2384 28,-69.2384 32,-75.2384 28.0001,-81.2384"/>
<text text-anchor="middle" x="38" y="-179.5" font-family="Helvetica,sans-Serif" font-size="10.00"> +n2</text>
<text text-anchor="middle" x="38" y="-168.5" font-family="Helvetica,sans-Serif" font-size="10.00">+n3</text>
<text text-anchor="middle" x="38" y="-157.5" font-family="Helvetica,sans-Serif" font-size="10.00">+a</text>
<text text-anchor="middle" x="38" y="-146.5" font-family="Helvetica,sans-Serif" font-size="10.00">+b</text>
<text text-anchor="middle" x="38" y="-135.5" font-family="Helvetica,sans-Serif" font-size="10.00">+c</text>
<text text-anchor="middle" x="38" y="-124.5" font-family="Helvetica,sans-Serif" font-size="10.00">+t1</text>
<text text-anchor="middle" x="38" y="-113.5" font-family="Helvetica,sans-Serif" font-size="10.00">+t2</text>
<text text-anchor="middle" x="38" y="-102.5" font-family="Helvetica,sans-Serif" font-size="10.00">+t3</text>
<text text-anchor="middle" x="38" y="-91.5" font-family="Helvetica,sans-Serif" font-size="10.00">+n1</text>
</g>
</g>
</svg>
