<?xml version="1.0" encoding="UTF-8" standalone="no"?>
<!DOCTYPE svg PUBLIC "-//W3C//DTD SVG 1.1//EN"
 "http://www.w3.org/Graphics/SVG/1.1/DTD/svg11.dtd">
<!-- Generated by graphviz version 2.36.0 (20140111.2315)
 -->
<!-- Title: GlobalRegistration::Utils::UnrollIndexLoop Pages: 1 -->
<svg width="314pt" height="98pt"
 viewBox="0.00 0.00 314.00 98.00" xmlns="http://www.w3.org/2000/svg" xmlns:xlink="http://www.w3.org/1999/xlink">
<g id="graph0" class="graph" transform="scale(1 1) rotate(0) translate(4 94)">
<title>GlobalRegistration::Utils::UnrollIndexLoop</title>
<polygon fill="white" stroke="none" points="-4,4 -4,-94 310,-94 310,4 -4,4"/>
<!-- Node1 -->
<g id="node1" class="node"><title>Node1</title>
<polygon fill="#bfbfbf" stroke="black" points="0.5,-27 0.5,-57 119.5,-57 119.5,-27 0.5,-27"/>
<text text-anchor="start" x="8.5" y="-45" font-family="Helvetica,sans-Serif" font-size="10.00">GlobalRegistration</text>
<text text-anchor="middle" x="60" y="-34" font-family="Helvetica,sans-Serif" font-size="10.00">::Utils::UnrollIndexLoop</text>
</g>
<!-- Node2 -->
<g id="node2" class="node"><title>Node2</title>
<g id="a_node2"><a xlink:href="a00030.html#a6e1971574f816cdac58c031d8cbaacee" target="_top" xlink:title="Check if n is within [0:gsize] if enable=true. ">
<polygon fill="white" stroke="black" points="156.5,-48.5 156.5,-89.5 305.5,-89.5 305.5,-48.5 156.5,-48.5"/>
<text text-anchor="start" x="164.5" y="-77.5" font-family="Helvetica,sans-Serif" font-size="10.00">GlobalRegistration</text>
<text text-anchor="start" x="164.5" y="-66.5" font-family="Helvetica,sans-Serif" font-size="10.00">::Utils::internal::IndexValidator</text>
<text text-anchor="middle" x="231" y="-55.5" font-family="Helvetica,sans-Serif" font-size="10.00">::validate</text>
</a>
</g>
</g>
<!-- Node1&#45;&gt;Node2 -->
<g id="edge1" class="edge"><title>Node1&#45;&gt;Node2</title>
<path fill="none" stroke="midnightblue" d="M119.634,-51.3675C128.223,-52.7397 137.206,-54.175 146.18,-55.6086"/>
<polygon fill="midnightblue" stroke="midnightblue" points="145.858,-59.1015 156.285,-57.2231 146.963,-52.1892 145.858,-59.1015"/>
</g>
<!-- Node3 -->
<g id="node3" class="node"><title>Node3</title>
<g id="a_node3"><a xlink:href="a00091.html#a76ba87a33277e2c0cb66bbf1dbb3f4c7" target="_top" xlink:title="Compile time pow. ">
<polygon fill="white" stroke="black" points="182.5,-0 182.5,-30 279.5,-30 279.5,-0 182.5,-0"/>
<text text-anchor="start" x="190.5" y="-18" font-family="Helvetica,sans-Serif" font-size="10.00">GlobalRegistration</text>
<text text-anchor="middle" x="231" y="-7" font-family="Helvetica,sans-Serif" font-size="10.00">::Utils::POW</text>
</a>
</g>
</g>
<!-- Node1&#45;&gt;Node3 -->
<g id="edge2" class="edge"><title>Node1&#45;&gt;Node3</title>
<path fill="none" stroke="midnightblue" d="M119.634,-32.6325C136.608,-29.9207 155.123,-26.9626 172.055,-24.2576"/>
<polygon fill="midnightblue" stroke="midnightblue" points="173.042,-27.6443 182.364,-22.6104 171.937,-20.732 173.042,-27.6443"/>
</g>
</g>
</svg>
