<?xml version="1.0" encoding="UTF-8" standalone="no"?>
<!DOCTYPE svg PUBLIC "-//W3C//DTD SVG 1.1//EN"
 "http://www.w3.org/Graphics/SVG/1.1/DTD/svg11.dtd">
<!-- Generated by graphviz version 2.36.0 (20140111.2315)
 -->
<!-- Title: GlobalRegistration::KdTree::KdTree Pages: 1 -->
<svg width="240pt" height="87pt"
 viewBox="0.00 0.00 240.00 87.00" xmlns="http://www.w3.org/2000/svg" xmlns:xlink="http://www.w3.org/1999/xlink">
<g id="graph0" class="graph" transform="scale(1 1) rotate(0) translate(4 83)">
<title>GlobalRegistration::KdTree::KdTree</title>
<polygon fill="white" stroke="none" points="-4,4 -4,-83 236,-83 236,4 -4,4"/>
<!-- Node1 -->
<g id="node1" class="node"><title>Node1</title>
<polygon fill="#bfbfbf" stroke="black" points="0.5,-24 0.5,-54 97.5,-54 97.5,-24 0.5,-24"/>
<text text-anchor="start" x="8.5" y="-42" font-family="Helvetica,sans-Serif" font-size="10.00">GlobalRegistration</text>
<text text-anchor="middle" x="49" y="-31" font-family="Helvetica,sans-Serif" font-size="10.00">::KdTree::KdTree</text>
</g>
<!-- Node2 -->
<g id="node2" class="node"><title>Node2</title>
<g id="a_node2"><a xlink:href="a00023.html#a19523898e45c302ba90981f9f4cae3fb" target="_top" xlink:title="GlobalRegistration\l::AABB::extend">
<polygon fill="white" stroke="black" points="134.5,-49 134.5,-79 231.5,-79 231.5,-49 134.5,-49"/>
<text text-anchor="start" x="142.5" y="-67" font-family="Helvetica,sans-Serif" font-size="10.00">GlobalRegistration</text>
<text text-anchor="middle" x="183" y="-56" font-family="Helvetica,sans-Serif" font-size="10.00">::AABB::extend</text>
</a>
</g>
</g>
<!-- Node1&#45;&gt;Node2 -->
<g id="edge1" class="edge"><title>Node1&#45;&gt;Node2</title>
<path fill="none" stroke="midnightblue" d="M97.655,-48.0256C106.347,-49.6718 115.5,-51.4054 124.443,-53.0991"/>
<polygon fill="midnightblue" stroke="midnightblue" points="123.938,-56.5656 134.415,-54.9877 125.241,-49.6879 123.938,-56.5656"/>
</g>
<!-- Node3 -->
<g id="node3" class="node"><title>Node3</title>
<g id="a_node3"><a xlink:href="a00034.html#a6841c0418254813b75dd036a9e4e7c2b" target="_top" xlink:title="Finalize the creation of the KdTree. ">
<polygon fill="white" stroke="black" points="134.5,-0 134.5,-30 231.5,-30 231.5,-0 134.5,-0"/>
<text text-anchor="start" x="142.5" y="-18" font-family="Helvetica,sans-Serif" font-size="10.00">GlobalRegistration</text>
<text text-anchor="middle" x="183" y="-7" font-family="Helvetica,sans-Serif" font-size="10.00">::KdTree::finalize</text>
</a>
</g>
</g>
<!-- Node1&#45;&gt;Node3 -->
<g id="edge2" class="edge"><title>Node1&#45;&gt;Node3</title>
<path fill="none" stroke="midnightblue" d="M97.655,-30.3354C106.347,-28.7551 115.5,-27.0909 124.443,-25.4649"/>
<polygon fill="midnightblue" stroke="midnightblue" points="125.202,-28.8843 134.415,-23.6518 123.95,-21.9972 125.202,-28.8843"/>
</g>
</g>
</svg>
