<?xml version="1.0" encoding="UTF-8" standalone="no"?>
<!DOCTYPE svg PUBLIC "-//W3C//DTD SVG 1.1//EN"
 "http://www.w3.org/Graphics/SVG/1.1/DTD/svg11.dtd">
<!-- Generated by graphviz version 2.36.0 (20140111.2315)
 -->
<!-- Title: GlobalRegistration::Accelerators::PairExtraction::NdNode::split Pages: 1 -->
<svg width="288pt" height="48pt"
 viewBox="0.00 0.00 288.00 48.00" xmlns="http://www.w3.org/2000/svg" xmlns:xlink="http://www.w3.org/1999/xlink">
<g id="graph0" class="graph" transform="scale(1 1) rotate(0) translate(4 44)">
<title>GlobalRegistration::Accelerators::PairExtraction::NdNode::split</title>
<polygon fill="white" stroke="none" points="-4,4 -4,-44 284,-44 284,4 -4,4"/>
<!-- Node1 -->
<g id="node1" class="node"><title>Node1</title>
<polygon fill="#bfbfbf" stroke="black" points="0.5,0.5 0.5,-40.5 145.5,-40.5 145.5,0.5 0.5,0.5"/>
<text text-anchor="start" x="8.5" y="-28.5" font-family="Helvetica,sans-Serif" font-size="10.00">GlobalRegistration</text>
<text text-anchor="start" x="8.5" y="-17.5" font-family="Helvetica,sans-Serif" font-size="10.00">::Accelerators::PairExtraction</text>
<text text-anchor="middle" x="73" y="-6.5" font-family="Helvetica,sans-Serif" font-size="10.00">::NdNode::split</text>
</g>
<!-- Node2 -->
<g id="node2" class="node"><title>Node2</title>
<g id="a_node2"><a xlink:href="a00091.html#a76ba87a33277e2c0cb66bbf1dbb3f4c7" target="_top" xlink:title="Compile time pow. ">
<polygon fill="white" stroke="black" points="182.5,-5 182.5,-35 279.5,-35 279.5,-5 182.5,-5"/>
<text text-anchor="start" x="190.5" y="-23" font-family="Helvetica,sans-Serif" font-size="10.00">GlobalRegistration</text>
<text text-anchor="middle" x="231" y="-12" font-family="Helvetica,sans-Serif" font-size="10.00">::Utils::POW</text>
</a>
</g>
</g>
<!-- Node1&#45;&gt;Node2 -->
<g id="edge1" class="edge"><title>Node1&#45;&gt;Node2</title>
<path fill="none" stroke="midnightblue" d="M145.608,-20C154.589,-20 163.684,-20 172.411,-20"/>
<polygon fill="midnightblue" stroke="midnightblue" points="172.46,-23.5001 182.46,-20 172.46,-16.5001 172.46,-23.5001"/>
</g>
</g>
</svg>
