<?xml version="1.0" encoding="UTF-8" standalone="no"?>
<!DOCTYPE svg PUBLIC "-//W3C//DTD SVG 1.1//EN"
 "http://www.w3.org/Graphics/SVG/1.1/DTD/svg11.dtd">
<!-- Generated by graphviz version 2.36.0 (20140111.2315)
 -->
<!-- Title: GlobalRegistration::KdTree&lt; _Scalar, _Index &gt;::KdNode Pages: 1 -->
<svg width="261pt" height="228pt"
 viewBox="0.00 0.00 261.00 228.00" xmlns="http://www.w3.org/2000/svg" xmlns:xlink="http://www.w3.org/1999/xlink">
<g id="graph0" class="graph" transform="scale(1 1) rotate(0) translate(4 224)">
<title>GlobalRegistration::KdTree&lt; _Scalar, _Index &gt;::KdNode</title>
<polygon fill="white" stroke="none" points="-4,4 -4,-224 257,-224 257,4 -4,4"/>
<!-- Node1 -->
<g id="node1" class="node"><title>Node1</title>
<polygon fill="#bfbfbf" stroke="black" points="73,-0.5 73,-79.5 175,-79.5 175,-0.5 73,-0.5"/>
<text text-anchor="start" x="81" y="-67.5" font-family="Helvetica,sans-Serif" font-size="10.00">GlobalRegistration</text>
<text text-anchor="start" x="81" y="-56.5" font-family="Helvetica,sans-Serif" font-size="10.00">::KdTree&lt; _Scalar, </text>
<text text-anchor="middle" x="124" y="-45.5" font-family="Helvetica,sans-Serif" font-size="10.00">_Index &gt;::KdNode</text>
<polyline fill="none" stroke="black" points="73,-38.5 175,-38.5 "/>
<text text-anchor="middle" x="124" y="-26.5" font-family="Helvetica,sans-Serif" font-size="10.00"> </text>
<polyline fill="none" stroke="black" points="73,-19.5 175,-19.5 "/>
<text text-anchor="middle" x="124" y="-7.5" font-family="Helvetica,sans-Serif" font-size="10.00"> </text>
</g>
<!-- Node2 -->
<g id="node2" class="node"><title>Node2</title>
<polygon fill="white" stroke="#bfbfbf" points="-0.5,-161.5 -0.5,-218.5 34.5,-218.5 34.5,-161.5 -0.5,-161.5"/>
<text text-anchor="middle" x="17" y="-206.5" font-family="Helvetica,sans-Serif" font-size="10.00">float</text>
<polyline fill="none" stroke="#bfbfbf" points="-0.5,-199.5 34.5,-199.5 "/>
<text text-anchor="middle" x="17" y="-187.5" font-family="Helvetica,sans-Serif" font-size="10.00"> </text>
<polyline fill="none" stroke="#bfbfbf" points="-0.5,-180.5 34.5,-180.5 "/>
<text text-anchor="middle" x="17" y="-168.5" font-family="Helvetica,sans-Serif" font-size="10.00"> </text>
</g>
<!-- Node2&#45;&gt;Node1 -->
<g id="edge1" class="edge"><title>Node2&#45;&gt;Node1</title>
<path fill="none" stroke="#404040" d="M19.5872,-161.414C22.5175,-142.185 28.7523,-116.725 42,-98 47.8297,-89.7599 55.2488,-82.3198 63.2328,-75.7419"/>
<polygon fill="none" stroke="#404040" points="63.2728,-75.7113 65.6077,-68.8886 72.8035,-68.4198 70.4687,-75.2425 63.2728,-75.7113"/>
<text text-anchor="middle" x="68" y="-117.5" font-family="Helvetica,sans-Serif" font-size="10.00"> +splitValue</text>
</g>
<!-- Node3 -->
<g id="node3" class="node"><title>Node3</title>
<polygon fill="white" stroke="#bfbfbf" points="53,-161.5 53,-218.5 133,-218.5 133,-161.5 53,-161.5"/>
<text text-anchor="middle" x="93" y="-206.5" font-family="Helvetica,sans-Serif" font-size="10.00">unsigned short</text>
<polyline fill="none" stroke="#bfbfbf" points="53,-199.5 133,-199.5 "/>
<text text-anchor="middle" x="93" y="-187.5" font-family="Helvetica,sans-Serif" font-size="10.00"> </text>
<polyline fill="none" stroke="#bfbfbf" points="53,-180.5 133,-180.5 "/>
<text text-anchor="middle" x="93" y="-168.5" font-family="Helvetica,sans-Serif" font-size="10.00"> </text>
</g>
<!-- Node3&#45;&gt;Node1 -->
<g id="edge2" class="edge"><title>Node3&#45;&gt;Node1</title>
<path fill="none" stroke="#404040" d="M95.2714,-161.279C97.0974,-143.123 100.17,-118.964 105,-98 105.497,-95.8447 106.041,-93.6555 106.622,-91.4526"/>
<polygon fill="none" stroke="#404040" points="106.698,-91.1903 104.514,-84.318 110.017,-79.6584 112.201,-86.5307 106.698,-91.1903"/>
<text text-anchor="middle" x="119" y="-117.5" font-family="Helvetica,sans-Serif" font-size="10.00"> +size</text>
</g>
<!-- Node4 -->
<g id="node4" class="node"><title>Node4</title>
<polygon fill="white" stroke="#bfbfbf" points="151.5,-161.5 151.5,-218.5 180.5,-218.5 180.5,-161.5 151.5,-161.5"/>
<text text-anchor="middle" x="166" y="-206.5" font-family="Helvetica,sans-Serif" font-size="10.00">int</text>
<polyline fill="none" stroke="#bfbfbf" points="151.5,-199.5 180.5,-199.5 "/>
<text text-anchor="middle" x="166" y="-187.5" font-family="Helvetica,sans-Serif" font-size="10.00"> </text>
<polyline fill="none" stroke="#bfbfbf" points="151.5,-180.5 180.5,-180.5 "/>
<text text-anchor="middle" x="166" y="-168.5" font-family="Helvetica,sans-Serif" font-size="10.00"> </text>
</g>
<!-- Node4&#45;&gt;Node1 -->
<g id="edge3" class="edge"><title>Node4&#45;&gt;Node1</title>
<path fill="none" stroke="#404040" d="M158.1,-161.162C152.535,-141.553 144.927,-114.744 138.309,-91.4236"/>
<polygon fill="none" stroke="#404040" points="138.231,-91.1471 132.745,-86.467 134.955,-79.6029 140.441,-84.283 138.231,-91.1471"/>
<text text-anchor="middle" x="180" y="-134" font-family="Helvetica,sans-Serif" font-size="10.00"> +start</text>
<text text-anchor="middle" x="180" y="-123" font-family="Helvetica,sans-Serif" font-size="10.00">+leaf</text>
<text text-anchor="middle" x="180" y="-112" font-family="Helvetica,sans-Serif" font-size="10.00">+dim</text>
<text text-anchor="middle" x="180" y="-101" font-family="Helvetica,sans-Serif" font-size="10.00">+firstChildId</text>
</g>
<!-- Node5 -->
<g id="node5" class="node"><title>Node5</title>
<polygon fill="white" stroke="#bfbfbf" points="217.5,-161 217.5,-219 246.5,-219 246.5,-161 217.5,-161"/>
<polyline fill="none" stroke="#bfbfbf" points="217.5,-199 246.5,-199 "/>
<text text-anchor="middle" x="232" y="-187" font-family="Helvetica,sans-Serif" font-size="10.00"> </text>
<polyline fill="none" stroke="#bfbfbf" points="217.5,-180 246.5,-180 "/>
<text text-anchor="middle" x="232" y="-168" font-family="Helvetica,sans-Serif" font-size="10.00"> </text>
</g>
<!-- Node5&#45;&gt;Node1 -->
<g id="edge4" class="edge"><title>Node5&#45;&gt;Node1</title>
<path fill="none" stroke="#404040" d="M230.54,-160.944C228.339,-141.739 222.968,-116.501 210,-98 203.361,-88.5289 194.601,-80.2092 185.21,-73.0627"/>
<polygon fill="none" stroke="#404040" points="185.064,-72.9596 177.855,-72.7685 175.259,-66.0409 182.468,-66.232 185.064,-72.9596"/>
<text text-anchor="middle" x="240.5" y="-117.5" font-family="Helvetica,sans-Serif" font-size="10.00"> +@1</text>
</g>
</g>
</svg>
