<?xml version="1.0" encoding="UTF-8" standalone="no"?>
<!DOCTYPE svg PUBLIC "-//W3C//DTD SVG 1.1//EN"
 "http://www.w3.org/Graphics/SVG/1.1/DTD/svg11.dtd">
<!-- Generated by graphviz version 2.36.0 (20140111.2315)
 -->
<!-- Title: GlobalRegistration::Match4PCSOptions Pages: 1 -->
<svg width="339pt" height="270pt"
 viewBox="0.00 0.00 339.00 270.00" xmlns="http://www.w3.org/2000/svg" xmlns:xlink="http://www.w3.org/1999/xlink">
<g id="graph0" class="graph" transform="scale(1 1) rotate(0) translate(4 266)">
<title>GlobalRegistration::Match4PCSOptions</title>
<polygon fill="white" stroke="none" points="-4,4 -4,-266 335,-266 335,4 -4,4"/>
<!-- Node1 -->
<g id="node1" class="node"><title>Node1</title>
<polygon fill="#bfbfbf" stroke="black" points="42.5,-0.5 42.5,-101.5 173.5,-101.5 173.5,-0.5 42.5,-0.5"/>
<text text-anchor="start" x="50.5" y="-89.5" font-family="Helvetica,sans-Serif" font-size="10.00">GlobalRegistration</text>
<text text-anchor="middle" x="108" y="-78.5" font-family="Helvetica,sans-Serif" font-size="10.00">::Match4PCSOptions</text>
<polyline fill="none" stroke="black" points="42.5,-71.5 173.5,-71.5 "/>
<text text-anchor="middle" x="108" y="-59.5" font-family="Helvetica,sans-Serif" font-size="10.00"> </text>
<polyline fill="none" stroke="black" points="42.5,-52.5 173.5,-52.5 "/>
<text text-anchor="start" x="50.5" y="-40.5" font-family="Helvetica,sans-Serif" font-size="10.00">+ Match4PCSOptions()</text>
<text text-anchor="start" x="50.5" y="-29.5" font-family="Helvetica,sans-Serif" font-size="10.00">+ configureOverlap()</text>
<text text-anchor="start" x="50.5" y="-18.5" font-family="Helvetica,sans-Serif" font-size="10.00">+ getTerminateThreshold()</text>
<text text-anchor="start" x="50.5" y="-7.5" font-family="Helvetica,sans-Serif" font-size="10.00">+ getOverlapEstimation()</text>
</g>
<!-- Node2 -->
<g id="node2" class="node"><title>Node2</title>
<polygon fill="white" stroke="#bfbfbf" points="-0.5,-204.5 -0.5,-261.5 42.5,-261.5 42.5,-204.5 -0.5,-204.5"/>
<text text-anchor="middle" x="21" y="-249.5" font-family="Helvetica,sans-Serif" font-size="10.00">size_t</text>
<polyline fill="none" stroke="#bfbfbf" points="-0.5,-242.5 42.5,-242.5 "/>
<text text-anchor="middle" x="21" y="-230.5" font-family="Helvetica,sans-Serif" font-size="10.00"> </text>
<polyline fill="none" stroke="#bfbfbf" points="-0.5,-223.5 42.5,-223.5 "/>
<text text-anchor="middle" x="21" y="-211.5" font-family="Helvetica,sans-Serif" font-size="10.00"> </text>
</g>
<!-- Node2&#45;&gt;Node1 -->
<g id="edge1" class="edge"><title>Node2&#45;&gt;Node1</title>
<path fill="none" stroke="#404040" d="M21.0703,-204.285C22.1797,-180.672 26.3346,-146.46 40,-120 41.4927,-117.11 43.1521,-114.265 44.9442,-111.477"/>
<polygon fill="none" stroke="#404040" points="44.9888,-111.414 45.2132,-104.207 51.9527,-101.642 51.7283,-108.849 44.9888,-111.414"/>
<text text-anchor="middle" x="72" y="-150.5" font-family="Helvetica,sans-Serif" font-size="10.00"> +sample_size</text>
</g>
<!-- Node3 -->
<g id="node3" class="node"><title>Node3</title>
<polygon fill="white" stroke="#bfbfbf" points="93.5,-204.5 93.5,-261.5 122.5,-261.5 122.5,-204.5 93.5,-204.5"/>
<text text-anchor="middle" x="108" y="-249.5" font-family="Helvetica,sans-Serif" font-size="10.00">int</text>
<polyline fill="none" stroke="#bfbfbf" points="93.5,-242.5 122.5,-242.5 "/>
<text text-anchor="middle" x="108" y="-230.5" font-family="Helvetica,sans-Serif" font-size="10.00"> </text>
<polyline fill="none" stroke="#bfbfbf" points="93.5,-223.5 122.5,-223.5 "/>
<text text-anchor="middle" x="108" y="-211.5" font-family="Helvetica,sans-Serif" font-size="10.00"> </text>
</g>
<!-- Node3&#45;&gt;Node1 -->
<g id="edge2" class="edge"><title>Node3&#45;&gt;Node1</title>
<path fill="none" stroke="#404040" d="M108,-204.269C108,-180.261 108,-144.656 108,-113.911"/>
<polygon fill="none" stroke="#404040" points="108,-113.523 104,-107.524 108,-101.523 112,-107.523 108,-113.523"/>
<text text-anchor="middle" x="155" y="-156" font-family="Helvetica,sans-Serif" font-size="10.00"> +max_time_seconds</text>
<text text-anchor="middle" x="155" y="-145" font-family="Helvetica,sans-Serif" font-size="10.00">+randomSeed</text>
</g>
<!-- Node4 -->
<g id="node4" class="node"><title>Node4</title>
<polygon fill="white" stroke="#bfbfbf" points="203,-204.5 203,-261.5 247,-261.5 247,-204.5 203,-204.5"/>
<text text-anchor="middle" x="225" y="-249.5" font-family="Helvetica,sans-Serif" font-size="10.00">Scalar</text>
<polyline fill="none" stroke="#bfbfbf" points="203,-242.5 247,-242.5 "/>
<text text-anchor="middle" x="225" y="-230.5" font-family="Helvetica,sans-Serif" font-size="10.00"> </text>
<polyline fill="none" stroke="#bfbfbf" points="203,-223.5 247,-223.5 "/>
<text text-anchor="middle" x="225" y="-211.5" font-family="Helvetica,sans-Serif" font-size="10.00"> </text>
</g>
<!-- Node4&#45;&gt;Node1 -->
<g id="edge3" class="edge"><title>Node4&#45;&gt;Node1</title>
<path fill="none" stroke="#404040" d="M225.127,-204.107C223.998,-180.065 219.298,-145.33 203,-120 197.557,-111.541 190.658,-103.807 183.07,-96.8354"/>
<polygon fill="none" stroke="#404040" points="183.021,-96.7935 175.861,-95.941 173.894,-89.0033 181.054,-89.8559 183.021,-96.7935"/>
<text text-anchor="middle" x="277" y="-178" font-family="Helvetica,sans-Serif" font-size="10.00"> +max_angle</text>
<text text-anchor="middle" x="277" y="-167" font-family="Helvetica,sans-Serif" font-size="10.00">+max_color_distance</text>
<text text-anchor="middle" x="277" y="-156" font-family="Helvetica,sans-Serif" font-size="10.00">+delta</text>
<text text-anchor="start" x="223" y="-145" font-family="Helvetica,sans-Serif" font-size="10.00">+max_translation</text>
<text text-anchor="middle" x="277" y="-134" font-family="Helvetica,sans-Serif" font-size="10.00">_distance</text>
<text text-anchor="middle" x="277" y="-123" font-family="Helvetica,sans-Serif" font-size="10.00">+max_normal_difference</text>
</g>
</g>
</svg>
