<?xml version="1.0" encoding="UTF-8" standalone="no"?>
<!DOCTYPE svg PUBLIC "-//W3C//DTD SVG 1.1//EN"
 "http://www.w3.org/Graphics/SVG/1.1/DTD/svg11.dtd">
<!-- Generated by graphviz version 2.36.0 (20140111.2315)
 -->
<!-- Title: GlobalRegistration::PairCreationFunctor&lt; _Scalar &gt; Pages: 1 -->
<!--zoomable 800 -->
<svg id="main" version="1.1" xmlns="http://www.w3.org/2000/svg" xmlns:xlink="http://www.w3.org/1999/xlink" xml:space="preserve" onload="init(evt)">
<style type="text/css"><![CDATA[
.edge:hover path { stroke: red; }
.edge:hover polygon { stroke: red; fill: red; }
]]></style>
<script type="text/javascript"><![CDATA[
var edges = document.getElementsByTagName('g');
if (edges && edges.length) {
  for (var i=0;i<edges.length;i++) {
    if (edges[i].id.substr(0,4)=='edge') {
      edges[i].setAttribute('class','edge');
    }
  }
}
]]></script>
        <defs>
                <circle id="rim" cx="0" cy="0" r="7"/>
                <circle id="rim2" cx="0" cy="0" r="3.5"/>
                <g id="zoomPlus">
                        <use xlink:href="#rim" fill="#404040">
                                <set attributeName="fill" to="#808080" begin="zoomplus.mouseover" end="zoomplus.mouseout"/>
                        </use>
                        <path d="M-4,0h8M0,-4v8" fill="none" stroke="white" stroke-width="1.5" pointer-events="none"/>
                </g>
                <g id="zoomMin">
                        <use xlink:href="#rim" fill="#404040">
                                <set attributeName="fill" to="#808080" begin="zoomminus.mouseover" end="zoomminus.mouseout"/>
                        </use>
                        <path d="M-4,0h8" fill="none" stroke="white" stroke-width="1.5" pointer-events="none"/>
                </g>
                <g id="dirArrow">
                        <path fill="none" stroke="white" stroke-width="1.5" d="M0,-3.0v7 M-2.5,-0.5L0,-3.0L2.5,-0.5"/>
                </g>
               <g id="resetDef">
                       <use xlink:href="#rim2" fill="#404040">
                               <set attributeName="fill" to="#808080" begin="reset.mouseover" end="reset.mouseout"/>
                       </use>
               </g>
        </defs>

<script type="text/javascript">
var viewWidth = 1337;
var viewHeight = 800;
var sectionId = 'dynsection-1';
</script>
<script xlink:href="svgpan.js"/>
<svg id="graph" class="graph">
<g id="viewport">
<title>GlobalRegistration::PairCreationFunctor&lt; _Scalar &gt;</title>
<polygon fill="white" stroke="none" points="-4,4 -4,-796 1333,-796 1333,4 -4,4"/>
<!-- Node1 -->
<g id="node1" class="node"><title>Node1</title>
<polygon fill="#bfbfbf" stroke="black" points="588,-0.5 588,-189.5 716,-189.5 716,-0.5 588,-0.5"/>
<text text-anchor="start" x="596" y="-177.5" font-family="Helvetica,sans-Serif" font-size="10.00">GlobalRegistration</text>
<text text-anchor="start" x="596" y="-166.5" font-family="Helvetica,sans-Serif" font-size="10.00">::PairCreationFunctor</text>
<text text-anchor="middle" x="652" y="-155.5" font-family="Helvetica,sans-Serif" font-size="10.00">&lt; _Scalar &gt;</text>
<polyline fill="none" stroke="black" points="588,-148.5 716,-148.5 "/>
<text text-anchor="middle" x="652" y="-136.5" font-family="Helvetica,sans-Serif" font-size="10.00"> </text>
<polyline fill="none" stroke="black" points="588,-129.5 716,-129.5 "/>
<text text-anchor="start" x="596" y="-117.5" font-family="Helvetica,sans-Serif" font-size="10.00">+ PairCreationFunctor()</text>
<text text-anchor="start" x="596" y="-106.5" font-family="Helvetica,sans-Serif" font-size="10.00">+ unitToWorld()</text>
<text text-anchor="start" x="596" y="-95.5" font-family="Helvetica,sans-Serif" font-size="10.00">+ unitToWorld()</text>
<text text-anchor="start" x="596" y="-84.5" font-family="Helvetica,sans-Serif" font-size="10.00">+ getPointInWorldCoord()</text>
<text text-anchor="start" x="596" y="-73.5" font-family="Helvetica,sans-Serif" font-size="10.00">+ synch3DContent()</text>
<text text-anchor="start" x="596" y="-62.5" font-family="Helvetica,sans-Serif" font-size="10.00">+ setRadius()</text>
<text text-anchor="start" x="596" y="-51.5" font-family="Helvetica,sans-Serif" font-size="10.00">+ getNormalizedEpsilon()</text>
<text text-anchor="start" x="596" y="-40.5" font-family="Helvetica,sans-Serif" font-size="10.00">+ setBase()</text>
<text text-anchor="start" x="596" y="-29.5" font-family="Helvetica,sans-Serif" font-size="10.00">+ beginPrimitiveCollect()</text>
<text text-anchor="start" x="596" y="-18.5" font-family="Helvetica,sans-Serif" font-size="10.00">+ endPrimitiveCollect()</text>
<text text-anchor="start" x="596" y="-7.5" font-family="Helvetica,sans-Serif" font-size="10.00">+ process()</text>
</g>
<!-- Node2 -->
<g id="node2" class="node"><title>Node2</title>
<polygon fill="white" stroke="#bfbfbf" points="341.5,-271.5 341.5,-350.5 482.5,-350.5 482.5,-271.5 341.5,-271.5"/>
<text text-anchor="start" x="349.5" y="-338.5" font-family="Helvetica,sans-Serif" font-size="10.00">std::vector&lt; typename</text>
<text text-anchor="start" x="349.5" y="-327.5" font-family="Helvetica,sans-Serif" font-size="10.00"> GlobalRegistration::</text>
<text text-anchor="middle" x="412" y="-316.5" font-family="Helvetica,sans-Serif" font-size="10.00">PairCreationFunctor::Point &gt;</text>
<polyline fill="none" stroke="#bfbfbf" points="341.5,-309.5 482.5,-309.5 "/>
<text text-anchor="middle" x="412" y="-297.5" font-family="Helvetica,sans-Serif" font-size="10.00"> </text>
<polyline fill="none" stroke="#bfbfbf" points="341.5,-290.5 482.5,-290.5 "/>
<text text-anchor="middle" x="412" y="-278.5" font-family="Helvetica,sans-Serif" font-size="10.00"> </text>
</g>
<!-- Node2&#45;&gt;Node1 -->
<g id="edge1" class="edge"><title>Node2&#45;&gt;Node1</title>
<path fill="none" stroke="#404040" d="M445.778,-271.344C463.602,-251.676 486.238,-227.805 508,-208 529.93,-188.041 555.08,-167.701 578.161,-149.928"/>
<polygon fill="none" stroke="#404040" points="578.377,-149.763 580.715,-142.942 587.911,-142.476 585.573,-149.298 578.377,-149.763"/>
<text text-anchor="middle" x="526" y="-222.5" font-family="Helvetica,sans-Serif" font-size="10.00"> +points</text>
</g>
<!-- Node3 -->
<g id="node3" class="node"><title>Node3</title>
<polygon fill="white" stroke="#bfbfbf" points="162.5,-541.5 162.5,-598.5 201.5,-598.5 201.5,-541.5 162.5,-541.5"/>
<text text-anchor="middle" x="182" y="-586.5" font-family="Helvetica,sans-Serif" font-size="10.00">Point</text>
<polyline fill="none" stroke="#bfbfbf" points="162.5,-579.5 201.5,-579.5 "/>
<text text-anchor="middle" x="182" y="-567.5" font-family="Helvetica,sans-Serif" font-size="10.00"> </text>
<polyline fill="none" stroke="#bfbfbf" points="162.5,-560.5 201.5,-560.5 "/>
<text text-anchor="middle" x="182" y="-548.5" font-family="Helvetica,sans-Serif" font-size="10.00"> </text>
</g>
<!-- Node3&#45;&gt;Node2 -->
<g id="edge2" class="edge"><title>Node3&#45;&gt;Node2</title>
<path fill="none" stroke="#404040" d="M177.88,-541.325C171.607,-494.647 162.424,-403.088 183,-380 205.19,-355.101 300.551,-373.104 332,-362 336.778,-360.313 341.57,-358.304 346.302,-356.074"/>
<polygon fill="none" stroke="#404040" points="346.508,-355.969 350.039,-349.681 357.201,-350.521 353.67,-356.809 346.508,-355.969"/>
<text text-anchor="middle" x="207.5" y="-410.5" font-family="Helvetica,sans-Serif" font-size="10.00"> +elements</text>
</g>
<!-- Node4 -->
<g id="node4" class="node"><title>Node4</title>
<g id="a_node4"><a xlink:title="STL class. ">
<polygon fill="white" stroke="#bfbfbf" points="516.5,-541.5 516.5,-598.5 603.5,-598.5 603.5,-541.5 516.5,-541.5"/>
<text text-anchor="middle" x="560" y="-586.5" font-family="Helvetica,sans-Serif" font-size="10.00">std::vector&lt; T &gt;</text>
<polyline fill="none" stroke="#bfbfbf" points="516.5,-579.5 603.5,-579.5 "/>
<text text-anchor="middle" x="560" y="-567.5" font-family="Helvetica,sans-Serif" font-size="10.00"> </text>
<polyline fill="none" stroke="#bfbfbf" points="516.5,-560.5 603.5,-560.5 "/>
<text text-anchor="middle" x="560" y="-548.5" font-family="Helvetica,sans-Serif" font-size="10.00"> </text>
</a>
</g>
</g>
<!-- Node4&#45;&gt;Node1 -->
<g id="edge17" class="edge"><title>Node4&#45;&gt;Node1</title>
<path fill="none" stroke="#404040" d="M555.481,-541.046C546.642,-478.048 532.311,-321.626 586,-208 587.156,-205.554 588.348,-203.092 589.57,-200.621"/>
<polygon fill="none" stroke="#404040" points="589.663,-200.438 588.82,-193.276 595.107,-189.744 595.95,-196.906 589.663,-200.438"/>
<text text-anchor="middle" x="581.5" y="-308.5" font-family="Helvetica,sans-Serif" font-size="10.00"> +pairs</text>
</g>
<!-- Node4&#45;&gt;Node2 -->
<g id="edge3" class="edge"><title>Node4&#45;&gt;Node2</title>
<path fill="none" stroke="orange" d="M507.371,-542.889C471.81,-522.056 427.704,-489.21 407,-446 392.766,-416.293 395.794,-378.487 401.351,-350.611"/>
<polygon fill="orange" stroke="orange" points="505.788,-546.015 516.209,-547.926 509.254,-539.933 505.788,-546.015"/>
<text text-anchor="start" x="407" y="-416" font-family="Helvetica,sans-Serif" font-size="10.00"> &lt; typename GlobalRegistration</text>
<text text-anchor="middle" x="476.5" y="-405" font-family="Helvetica,sans-Serif" font-size="10.00">::PairCreationFunctor::Point &gt;</text>
</g>
<!-- Node6 -->
<g id="node6" class="node"><title>Node6</title>
<polygon fill="white" stroke="#bfbfbf" points="171,-271.5 171,-350.5 323,-350.5 323,-271.5 171,-271.5"/>
<text text-anchor="start" x="179" y="-338.5" font-family="Helvetica,sans-Serif" font-size="10.00">std::vector&lt; GlobalRegistration</text>
<text text-anchor="start" x="179" y="-327.5" font-family="Helvetica,sans-Serif" font-size="10.00">::Accelerators::PairExtraction</text>
<text text-anchor="middle" x="247" y="-316.5" font-family="Helvetica,sans-Serif" font-size="10.00">::HyperSphere &gt;</text>
<polyline fill="none" stroke="#bfbfbf" points="171,-309.5 323,-309.5 "/>
<text text-anchor="middle" x="247" y="-297.5" font-family="Helvetica,sans-Serif" font-size="10.00"> </text>
<polyline fill="none" stroke="#bfbfbf" points="171,-290.5 323,-290.5 "/>
<text text-anchor="middle" x="247" y="-278.5" font-family="Helvetica,sans-Serif" font-size="10.00"> </text>
</g>
<!-- Node4&#45;&gt;Node6 -->
<g id="edge7" class="edge"><title>Node4&#45;&gt;Node6</title>
<path fill="none" stroke="orange" d="M506.218,-562.891C438.133,-552.088 322.663,-522.915 264,-446 243.45,-419.056 240.683,-379.836 242.171,-350.783"/>
<polygon fill="orange" stroke="orange" points="505.904,-566.383 516.314,-564.413 506.948,-559.461 505.904,-566.383"/>
<text text-anchor="start" x="264" y="-421.5" font-family="Helvetica,sans-Serif" font-size="10.00"> &lt; GlobalRegistration</text>
<text text-anchor="start" x="264" y="-410.5" font-family="Helvetica,sans-Serif" font-size="10.00">::Accelerators::PairExtraction</text>
<text text-anchor="middle" x="328.5" y="-399.5" font-family="Helvetica,sans-Serif" font-size="10.00">::HyperSphere &gt;</text>
</g>
<!-- Node10 -->
<g id="node10" class="node"><title>Node10</title>
<polygon fill="white" stroke="#bfbfbf" points="739,-277 739,-345 891,-345 891,-277 739,-277"/>
<text text-anchor="start" x="747" y="-333" font-family="Helvetica,sans-Serif" font-size="10.00">std::vector&lt; GlobalRegistration</text>
<text text-anchor="middle" x="815" y="-322" font-family="Helvetica,sans-Serif" font-size="10.00">::Point3D &gt;</text>
<polyline fill="none" stroke="#bfbfbf" points="739,-315 891,-315 "/>
<text text-anchor="middle" x="815" y="-303" font-family="Helvetica,sans-Serif" font-size="10.00"> </text>
<polyline fill="none" stroke="#bfbfbf" points="739,-296 891,-296 "/>
<text text-anchor="middle" x="815" y="-284" font-family="Helvetica,sans-Serif" font-size="10.00"> </text>
</g>
<!-- Node4&#45;&gt;Node10 -->
<g id="edge13" class="edge"><title>Node4&#45;&gt;Node10</title>
<path fill="none" stroke="orange" d="M563.369,-531.113C568.56,-481.953 580.265,-400.083 602,-380 644.194,-341.013 675.758,-380.926 730,-362 742.285,-357.713 754.768,-351.565 766.247,-345.038"/>
<polygon fill="orange" stroke="orange" points="559.856,-531.067 562.331,-541.368 566.821,-531.772 559.856,-531.067"/>
<text text-anchor="start" x="602" y="-416" font-family="Helvetica,sans-Serif" font-size="10.00"> &lt; GlobalRegistration</text>
<text text-anchor="middle" x="648.5" y="-405" font-family="Helvetica,sans-Serif" font-size="10.00">::Point3D &gt;</text>
</g>
<!-- Node13 -->
<g id="node13" class="node"><title>Node13</title>
<polygon fill="white" stroke="#bfbfbf" points="909.5,-277 909.5,-345 1020.5,-345 1020.5,-277 909.5,-277"/>
<text text-anchor="start" x="917.5" y="-333" font-family="Helvetica,sans-Serif" font-size="10.00">std::vector&lt; unsigned</text>
<text text-anchor="middle" x="965" y="-322" font-family="Helvetica,sans-Serif" font-size="10.00"> int &gt;</text>
<polyline fill="none" stroke="#bfbfbf" points="909.5,-315 1020.5,-315 "/>
<text text-anchor="middle" x="965" y="-303" font-family="Helvetica,sans-Serif" font-size="10.00"> </text>
<polyline fill="none" stroke="#bfbfbf" points="909.5,-296 1020.5,-296 "/>
<text text-anchor="middle" x="965" y="-284" font-family="Helvetica,sans-Serif" font-size="10.00"> </text>
</g>
<!-- Node4&#45;&gt;Node13 -->
<g id="edge16" class="edge"><title>Node4&#45;&gt;Node13</title>
<path fill="none" stroke="orange" d="M603.123,-534.812C631.085,-511.466 667.323,-478.906 695,-446 717.38,-419.392 707.487,-398.381 737,-380 798.867,-341.468 832.391,-389.227 900,-362 910.169,-357.905 920.101,-351.75 929.019,-345.144"/>
<polygon fill="orange" stroke="orange" points="600.575,-532.377 595.1,-541.447 605.037,-537.771 600.575,-532.377"/>
<text text-anchor="middle" x="774" y="-410.5" font-family="Helvetica,sans-Serif" font-size="10.00"> &lt; unsigned int &gt;</text>
</g>
<!-- Node5 -->
<g id="node5" class="node"><title>Node5</title>
<polygon fill="white" stroke="#bfbfbf" points="545.5,-734.5 545.5,-791.5 574.5,-791.5 574.5,-734.5 545.5,-734.5"/>
<text text-anchor="middle" x="560" y="-779.5" font-family="Helvetica,sans-Serif" font-size="10.00">T</text>
<polyline fill="none" stroke="#bfbfbf" points="545.5,-772.5 574.5,-772.5 "/>
<text text-anchor="middle" x="560" y="-760.5" font-family="Helvetica,sans-Serif" font-size="10.00"> </text>
<polyline fill="none" stroke="#bfbfbf" points="545.5,-753.5 574.5,-753.5 "/>
<text text-anchor="middle" x="560" y="-741.5" font-family="Helvetica,sans-Serif" font-size="10.00"> </text>
</g>
<!-- Node5&#45;&gt;Node4 -->
<g id="edge4" class="edge"><title>Node5&#45;&gt;Node4</title>
<path fill="none" stroke="#404040" d="M560,-734.227C560,-701.834 560,-648.022 560,-611.099"/>
<polygon fill="none" stroke="#404040" points="560,-610.807 556,-604.807 560,-598.807 564,-604.807 560,-610.807"/>
<text text-anchor="middle" x="584.5" y="-702.5" font-family="Helvetica,sans-Serif" font-size="10.00"> +elements</text>
</g>
<!-- Node6&#45;&gt;Node1 -->
<g id="edge5" class="edge"><title>Node6&#45;&gt;Node1</title>
<path fill="none" stroke="#404040" d="M309.153,-271.366C341.518,-251.704 381.969,-227.832 419,-208 470.903,-180.204 530.796,-151.485 576.861,-130.088"/>
<polygon fill="none" stroke="#404040" points="577.071,-129.991 580.836,-123.84 587.961,-124.949 584.196,-131.1 577.071,-129.991"/>
<text text-anchor="middle" x="445" y="-222.5" font-family="Helvetica,sans-Serif" font-size="10.00"> +primitives</text>
</g>
<!-- Node7 -->
<g id="node7" class="node"><title>Node7</title>
<g id="a_node7"><a xlink:href="a00027.html" target="_top" xlink:title="{GlobalRegistration\l::Accelerators::PairExtraction\l::HyperSphere\&lt; Point, _dim,\l Scalar \&gt;\n||+ HyperSphere()\l+ HyperSphere()\l+ quantified()\l+ operator\&lt;()\l+ operator Point()\l+ intersect()\l+ intersectFast()\l+ intersectPoint()\l+ center()\l+ radius()\l+ radius()\l+ intersectPoint()\l}">
<polygon fill="white" stroke="black" points="-0.5,-464.5 -0.5,-675.5 144.5,-675.5 144.5,-464.5 -0.5,-464.5"/>
<text text-anchor="start" x="7.5" y="-663.5" font-family="Helvetica,sans-Serif" font-size="10.00">GlobalRegistration</text>
<text text-anchor="start" x="7.5" y="-652.5" font-family="Helvetica,sans-Serif" font-size="10.00">::Accelerators::PairExtraction</text>
<text text-anchor="start" x="7.5" y="-641.5" font-family="Helvetica,sans-Serif" font-size="10.00">::HyperSphere&lt; Point, _dim,</text>
<text text-anchor="middle" x="72" y="-630.5" font-family="Helvetica,sans-Serif" font-size="10.00"> Scalar &gt;</text>
<polyline fill="none" stroke="black" points="-0.5,-623.5 144.5,-623.5 "/>
<text text-anchor="middle" x="72" y="-611.5" font-family="Helvetica,sans-Serif" font-size="10.00"> </text>
<polyline fill="none" stroke="black" points="-0.5,-604.5 144.5,-604.5 "/>
<text text-anchor="start" x="7.5" y="-592.5" font-family="Helvetica,sans-Serif" font-size="10.00">+ HyperSphere()</text>
<text text-anchor="start" x="7.5" y="-581.5" font-family="Helvetica,sans-Serif" font-size="10.00">+ HyperSphere()</text>
<text text-anchor="start" x="7.5" y="-570.5" font-family="Helvetica,sans-Serif" font-size="10.00">+ quantified()</text>
<text text-anchor="start" x="7.5" y="-559.5" font-family="Helvetica,sans-Serif" font-size="10.00">+ operator&lt;()</text>
<text text-anchor="start" x="7.5" y="-548.5" font-family="Helvetica,sans-Serif" font-size="10.00">+ operator Point()</text>
<text text-anchor="start" x="7.5" y="-537.5" font-family="Helvetica,sans-Serif" font-size="10.00">+ intersect()</text>
<text text-anchor="start" x="7.5" y="-526.5" font-family="Helvetica,sans-Serif" font-size="10.00">+ intersectFast()</text>
<text text-anchor="start" x="7.5" y="-515.5" font-family="Helvetica,sans-Serif" font-size="10.00">+ intersectPoint()</text>
<text text-anchor="start" x="7.5" y="-504.5" font-family="Helvetica,sans-Serif" font-size="10.00">+ center()</text>
<text text-anchor="start" x="7.5" y="-493.5" font-family="Helvetica,sans-Serif" font-size="10.00">+ radius()</text>
<text text-anchor="start" x="7.5" y="-482.5" font-family="Helvetica,sans-Serif" font-size="10.00">+ radius()</text>
<text text-anchor="start" x="7.5" y="-471.5" font-family="Helvetica,sans-Serif" font-size="10.00">+ intersectPoint()</text>
</a>
</g>
</g>
<!-- Node7&#45;&gt;Node6 -->
<g id="edge6" class="edge"><title>Node7&#45;&gt;Node6</title>
<path fill="none" stroke="#404040" d="M76.656,-464.302C82.2346,-434.703 92.522,-404.04 111,-380 123.641,-363.554 141.335,-350.797 159.79,-341.014"/>
<polygon fill="none" stroke="#404040" points="159.962,-340.929 163.558,-334.678 170.71,-335.593 167.115,-341.844 159.962,-340.929"/>
<text text-anchor="middle" x="135.5" y="-410.5" font-family="Helvetica,sans-Serif" font-size="10.00"> +elements</text>
</g>
<!-- Node8 -->
<g id="node8" class="node"><title>Node8</title>
<polygon fill="white" stroke="#bfbfbf" points="607.5,-282.5 607.5,-339.5 652.5,-339.5 652.5,-282.5 607.5,-282.5"/>
<text text-anchor="middle" x="630" y="-327.5" font-family="Helvetica,sans-Serif" font-size="10.00">double</text>
<polyline fill="none" stroke="#bfbfbf" points="607.5,-320.5 652.5,-320.5 "/>
<text text-anchor="middle" x="630" y="-308.5" font-family="Helvetica,sans-Serif" font-size="10.00"> </text>
<polyline fill="none" stroke="#bfbfbf" points="607.5,-301.5 652.5,-301.5 "/>
<text text-anchor="middle" x="630" y="-289.5" font-family="Helvetica,sans-Serif" font-size="10.00"> </text>
</g>
<!-- Node8&#45;&gt;Node1 -->
<g id="edge8" class="edge"><title>Node8&#45;&gt;Node1</title>
<path fill="none" stroke="#404040" d="M610.274,-282.268C603.02,-270.445 595.681,-256.134 592,-242 588.191,-227.377 588.321,-222.657 592,-208 592.574,-205.713 593.204,-203.422 593.886,-201.132"/>
<polygon fill="none" stroke="#404040" points="593.902,-201.084 592.001,-194.128 597.691,-189.698 599.592,-196.654 593.902,-201.084"/>
<text text-anchor="middle" x="642" y="-233.5" font-family="Helvetica,sans-Serif" font-size="10.00"> +pair_distance</text>
<text text-anchor="middle" x="642" y="-222.5" font-family="Helvetica,sans-Serif" font-size="10.00">+pair_distance_epsilon</text>
<text text-anchor="middle" x="642" y="-211.5" font-family="Helvetica,sans-Serif" font-size="10.00">+pair_normals_angle</text>
</g>
<!-- Node9 -->
<g id="node9" class="node"><title>Node9</title>
<polygon fill="white" stroke="#bfbfbf" points="671,-282.5 671,-339.5 721,-339.5 721,-282.5 671,-282.5"/>
<text text-anchor="middle" x="696" y="-327.5" font-family="Helvetica,sans-Serif" font-size="10.00">_Scalar</text>
<polyline fill="none" stroke="#bfbfbf" points="671,-320.5 721,-320.5 "/>
<text text-anchor="middle" x="696" y="-308.5" font-family="Helvetica,sans-Serif" font-size="10.00"> </text>
<polyline fill="none" stroke="#bfbfbf" points="671,-301.5 721,-301.5 "/>
<text text-anchor="middle" x="696" y="-289.5" font-family="Helvetica,sans-Serif" font-size="10.00"> </text>
</g>
<!-- Node9&#45;&gt;Node1 -->
<g id="edge9" class="edge"><title>Node9&#45;&gt;Node1</title>
<path fill="none" stroke="#404040" d="M697.164,-282.467C697.498,-261.792 696.814,-232.881 692,-208 691.577,-205.814 691.119,-203.614 690.629,-201.405"/>
<polygon fill="none" stroke="#404040" points="690.576,-201.185 685.267,-196.305 687.73,-189.527 693.039,-194.408 690.576,-201.185"/>
<text text-anchor="middle" x="735" y="-222.5" font-family="Helvetica,sans-Serif" font-size="10.00"> +norm_threshold</text>
</g>
<!-- Node10&#45;&gt;Node1 -->
<g id="edge10" class="edge"><title>Node10&#45;&gt;Node1</title>
<path fill="none" stroke="#404040" d="M807.054,-276.838C801.008,-255.888 791.265,-228.922 777,-208 762.823,-187.207 743.985,-167.696 725.244,-150.969"/>
<polygon fill="none" stroke="#404040" points="725.124,-150.865 717.972,-149.944 716.072,-142.988 723.224,-143.909 725.124,-150.865"/>
<text text-anchor="middle" x="805" y="-222.5" font-family="Helvetica,sans-Serif" font-size="10.00"> +Q_</text>
</g>
<!-- Node11 -->
<g id="node11" class="node"><title>Node11</title>
<g id="a_node11"><a xlink:href="a00042.html" target="_top" xlink:title="The basic 3D point structure. A point potentially contains also directional information and color...">
<polygon fill="white" stroke="black" points="766.5,-519.5 766.5,-620.5 863.5,-620.5 863.5,-519.5 766.5,-519.5"/>
<text text-anchor="start" x="774.5" y="-608.5" font-family="Helvetica,sans-Serif" font-size="10.00">GlobalRegistration</text>
<text text-anchor="middle" x="815" y="-597.5" font-family="Helvetica,sans-Serif" font-size="10.00">::Point3D</text>
<polyline fill="none" stroke="black" points="766.5,-590.5 863.5,-590.5 "/>
<text text-anchor="middle" x="815" y="-578.5" font-family="Helvetica,sans-Serif" font-size="10.00"> </text>
<polyline fill="none" stroke="black" points="766.5,-571.5 863.5,-571.5 "/>
<text text-anchor="start" x="774.5" y="-559.5" font-family="Helvetica,sans-Serif" font-size="10.00">+ Point3D()</text>
<text text-anchor="start" x="774.5" y="-548.5" font-family="Helvetica,sans-Serif" font-size="10.00">+ normal_()</text>
<text text-anchor="start" x="774.5" y="-537.5" font-family="Helvetica,sans-Serif" font-size="10.00">+ rgb_()</text>
<text text-anchor="start" x="774.5" y="-526.5" font-family="Helvetica,sans-Serif" font-size="10.00">+ Point3D()</text>
</a>
</g>
</g>
<!-- Node11&#45;&gt;Node10 -->
<g id="edge11" class="edge"><title>Node11&#45;&gt;Node10</title>
<path fill="none" stroke="#404040" d="M815,-519.448C815,-472.517 815,-402.647 815,-357.203"/>
<polygon fill="none" stroke="#404040" points="815,-357.072 811,-351.072 815,-345.072 819,-351.072 815,-357.072"/>
<text text-anchor="middle" x="839.5" y="-410.5" font-family="Helvetica,sans-Serif" font-size="10.00"> +elements</text>
</g>
<!-- Node12 -->
<g id="node12" class="node"><title>Node12</title>
<polygon fill="white" stroke="#bfbfbf" points="759,-734.5 759,-791.5 871,-791.5 871,-734.5 759,-734.5"/>
<text text-anchor="middle" x="815" y="-779.5" font-family="Helvetica,sans-Serif" font-size="10.00">Matrix&lt; Scalar, 3, 1 &gt;</text>
<polyline fill="none" stroke="#bfbfbf" points="759,-772.5 871,-772.5 "/>
<text text-anchor="middle" x="815" y="-760.5" font-family="Helvetica,sans-Serif" font-size="10.00"> </text>
<polyline fill="none" stroke="#bfbfbf" points="759,-753.5 871,-753.5 "/>
<text text-anchor="middle" x="815" y="-741.5" font-family="Helvetica,sans-Serif" font-size="10.00"> </text>
</g>
<!-- Node12&#45;&gt;Node11 -->
<g id="edge12" class="edge"><title>Node12&#45;&gt;Node11</title>
<path fill="none" stroke="#404040" d="M815,-734.227C815,-707.781 815,-667.058 815,-632.905"/>
<polygon fill="none" stroke="#404040" points="815,-632.658 811,-626.658 815,-620.658 819,-626.658 815,-632.658"/>
<text text-anchor="middle" x="837" y="-708" font-family="Helvetica,sans-Serif" font-size="10.00"> +normal_</text>
<text text-anchor="middle" x="837" y="-697" font-family="Helvetica,sans-Serif" font-size="10.00">+rgb_</text>
</g>
<!-- Node13&#45;&gt;Node1 -->
<g id="edge14" class="edge"><title>Node13&#45;&gt;Node1</title>
<path fill="none" stroke="#404040" d="M922.671,-276.746C915.186,-271.066 907.416,-265.294 900,-260 842.736,-219.12 776.145,-175.28 726.394,-143.221"/>
<polygon fill="none" stroke="#404040" points="726.135,-143.054 718.925,-143.173 716.042,-136.564 723.252,-136.445 726.135,-143.054"/>
<text text-anchor="middle" x="885" y="-222.5" font-family="Helvetica,sans-Serif" font-size="10.00"> +ids</text>
</g>
<!-- Node14 -->
<g id="node14" class="node"><title>Node14</title>
<polygon fill="white" stroke="#bfbfbf" points="973.5,-541.5 973.5,-598.5 1002.5,-598.5 1002.5,-541.5 973.5,-541.5"/>
<text text-anchor="middle" x="988" y="-586.5" font-family="Helvetica,sans-Serif" font-size="10.00">int</text>
<polyline fill="none" stroke="#bfbfbf" points="973.5,-579.5 1002.5,-579.5 "/>
<text text-anchor="middle" x="988" y="-567.5" font-family="Helvetica,sans-Serif" font-size="10.00"> </text>
<polyline fill="none" stroke="#bfbfbf" points="973.5,-560.5 1002.5,-560.5 "/>
<text text-anchor="middle" x="988" y="-548.5" font-family="Helvetica,sans-Serif" font-size="10.00"> </text>
</g>
<!-- Node14&#45;&gt;Node13 -->
<g id="edge15" class="edge"><title>Node14&#45;&gt;Node13</title>
<path fill="none" stroke="#404040" d="M977.673,-541.143C969.127,-516.519 957.663,-479.423 953,-446 948.947,-416.948 950.441,-409.222 953,-380 953.651,-372.566 954.695,-364.727 955.902,-357.118"/>
<polygon fill="none" stroke="#404040" points="955.944,-356.876 953.016,-350.286 957.973,-345.049 960.901,-351.639 955.944,-356.876"/>
<text text-anchor="middle" x="977.5" y="-410.5" font-family="Helvetica,sans-Serif" font-size="10.00"> +elements</text>
</g>
<!-- Node15 -->
<g id="node15" class="node"><title>Node15</title>
<g id="a_node15"><a xlink:href="a00038.html" target="_top" xlink:title="delta and overlap_estimation are the application parameters. All other parameters are more likely to ...">
<polygon fill="white" stroke="black" points="1050.5,-260.5 1050.5,-361.5 1181.5,-361.5 1181.5,-260.5 1050.5,-260.5"/>
<text text-anchor="start" x="1058.5" y="-349.5" font-family="Helvetica,sans-Serif" font-size="10.00">GlobalRegistration</text>
<text text-anchor="middle" x="1116" y="-338.5" font-family="Helvetica,sans-Serif" font-size="10.00">::Match4PCSOptions</text>
<polyline fill="none" stroke="black" points="1050.5,-331.5 1181.5,-331.5 "/>
<text text-anchor="middle" x="1116" y="-319.5" font-family="Helvetica,sans-Serif" font-size="10.00"> </text>
<polyline fill="none" stroke="black" points="1050.5,-312.5 1181.5,-312.5 "/>
<text text-anchor="start" x="1058.5" y="-300.5" font-family="Helvetica,sans-Serif" font-size="10.00">+ Match4PCSOptions()</text>
<text text-anchor="start" x="1058.5" y="-289.5" font-family="Helvetica,sans-Serif" font-size="10.00">+ configureOverlap()</text>
<text text-anchor="start" x="1058.5" y="-278.5" font-family="Helvetica,sans-Serif" font-size="10.00">+ getTerminateThreshold()</text>
<text text-anchor="start" x="1058.5" y="-267.5" font-family="Helvetica,sans-Serif" font-size="10.00">+ getOverlapEstimation()</text>
</a>
</g>
</g>
<!-- Node14&#45;&gt;Node15 -->
<g id="edge20" class="edge"><title>Node14&#45;&gt;Node15</title>
<path fill="none" stroke="#404040" d="M990.947,-541.346C996.224,-495.589 1008.32,-406.538 1025,-380 1029.44,-372.932 1034.9,-366.343 1040.93,-360.267"/>
<polygon fill="none" stroke="#404040" points="1041.31,-359.909 1042.98,-352.894 1050.1,-351.736 1048.43,-358.751 1041.31,-359.909"/>
<text text-anchor="middle" x="1072" y="-416" font-family="Helvetica,sans-Serif" font-size="10.00"> +max_time_seconds</text>
<text text-anchor="middle" x="1072" y="-405" font-family="Helvetica,sans-Serif" font-size="10.00">+randomSeed</text>
</g>
<!-- Node15&#45;&gt;Node1 -->
<g id="edge18" class="edge"><title>Node15&#45;&gt;Node1</title>
<path fill="none" stroke="#404040" d="M1050.39,-271.27C1043.23,-267.351 1036,-263.522 1029,-260 926.648,-208.527 804.438,-157.128 727.508,-125.946"/>
<polygon fill="none" stroke="#404040" points="727.153,-125.803 720.091,-127.263 716.027,-121.307 723.089,-119.846 727.153,-125.803"/>
<text text-anchor="middle" x="1012" y="-222.5" font-family="Helvetica,sans-Serif" font-size="10.00"> +options_</text>
</g>
<!-- Node16 -->
<g id="node16" class="node"><title>Node16</title>
<polygon fill="white" stroke="#bfbfbf" points="1119.5,-541.5 1119.5,-598.5 1162.5,-598.5 1162.5,-541.5 1119.5,-541.5"/>
<text text-anchor="middle" x="1141" y="-586.5" font-family="Helvetica,sans-Serif" font-size="10.00">size_t</text>
<polyline fill="none" stroke="#bfbfbf" points="1119.5,-579.5 1162.5,-579.5 "/>
<text text-anchor="middle" x="1141" y="-567.5" font-family="Helvetica,sans-Serif" font-size="10.00"> </text>
<polyline fill="none" stroke="#bfbfbf" points="1119.5,-560.5 1162.5,-560.5 "/>
<text text-anchor="middle" x="1141" y="-548.5" font-family="Helvetica,sans-Serif" font-size="10.00"> </text>
</g>
<!-- Node16&#45;&gt;Node15 -->
<g id="edge19" class="edge"><title>Node16&#45;&gt;Node15</title>
<path fill="none" stroke="#404040" d="M1138.32,-541.496C1134.46,-501.733 1127.2,-427.113 1122.01,-373.751"/>
<polygon fill="none" stroke="#404040" points="1122,-373.639 1117.43,-368.054 1120.83,-361.695 1125.4,-367.279 1122,-373.639"/>
<text text-anchor="middle" x="1161" y="-410.5" font-family="Helvetica,sans-Serif" font-size="10.00"> +sample_size</text>
</g>
<!-- Node17 -->
<g id="node17" class="node"><title>Node17</title>
<polygon fill="white" stroke="#bfbfbf" points="1206,-541.5 1206,-598.5 1250,-598.5 1250,-541.5 1206,-541.5"/>
<text text-anchor="middle" x="1228" y="-586.5" font-family="Helvetica,sans-Serif" font-size="10.00">Scalar</text>
<polyline fill="none" stroke="#bfbfbf" points="1206,-579.5 1250,-579.5 "/>
<text text-anchor="middle" x="1228" y="-567.5" font-family="Helvetica,sans-Serif" font-size="10.00"> </text>
<polyline fill="none" stroke="#bfbfbf" points="1206,-560.5 1250,-560.5 "/>
<text text-anchor="middle" x="1228" y="-548.5" font-family="Helvetica,sans-Serif" font-size="10.00"> </text>
</g>
<!-- Node17&#45;&gt;Node15 -->
<g id="edge21" class="edge"><title>Node17&#45;&gt;Node15</title>
<path fill="none" stroke="#404040" d="M1229.27,-541.38C1229.83,-502.718 1226.28,-431.437 1197,-380 1194.78,-376.101 1192.25,-372.326 1189.48,-368.688"/>
<polygon fill="none" stroke="#404040" points="1189.38,-368.571 1182.46,-366.551 1181.66,-359.385 1188.58,-361.404 1189.38,-368.571"/>
<text text-anchor="middle" x="1275" y="-438" font-family="Helvetica,sans-Serif" font-size="10.00"> +max_angle</text>
<text text-anchor="middle" x="1275" y="-427" font-family="Helvetica,sans-Serif" font-size="10.00">+max_color_distance</text>
<text text-anchor="middle" x="1275" y="-416" font-family="Helvetica,sans-Serif" font-size="10.00">+delta</text>
<text text-anchor="start" x="1221" y="-405" font-family="Helvetica,sans-Serif" font-size="10.00">+max_translation</text>
<text text-anchor="middle" x="1275" y="-394" font-family="Helvetica,sans-Serif" font-size="10.00">_distance</text>
<text text-anchor="middle" x="1275" y="-383" font-family="Helvetica,sans-Serif" font-size="10.00">+max_normal_difference</text>
</g>
</g>
</svg>
        <g id="navigator" transform="translate(0 0)" fill="#404254">
                <rect fill="#f2f5e9" fill-opacity="0.5" stroke="#606060" stroke-width=".5" x="0" y="0" width="60" height="60"/>
                <use id="zoomplus" xlink:href="#zoomPlus" x="17" y="9" onmousedown="handleZoom(evt,'in')"/>
                <use id="zoomminus" xlink:href="#zoomMin" x="42" y="9" onmousedown="handleZoom(evt,'out')"/>
                <use id="reset" xlink:href="#resetDef" x="30" y="36" onmousedown="handleReset()"/>
                <g id="arrowUp" xlink:href="#dirArrow" transform="translate(30 24)" onmousedown="handlePan(0,-1)">
                  <use xlink:href="#rim" fill="#404040">
                        <set attributeName="fill" to="#808080" begin="arrowUp.mouseover" end="arrowUp.mouseout"/>
                  </use>
                  <path fill="none" stroke="white" stroke-width="1.5" d="M0,-3.0v7 M-2.5,-0.5L0,-3.0L2.5,-0.5"/>
                </g>
                <g id="arrowRight" xlink:href="#dirArrow" transform="rotate(90) translate(36 -43)" onmousedown="handlePan(1,0)">
                  <use xlink:href="#rim" fill="#404040">
                        <set attributeName="fill" to="#808080" begin="arrowRight.mouseover" end="arrowRight.mouseout"/>
                  </use>
                  <path fill="none" stroke="white" stroke-width="1.5" d="M0,-3.0v7 M-2.5,-0.5L0,-3.0L2.5,-0.5"/>
                </g>
                <g id="arrowDown" xlink:href="#dirArrow" transform="rotate(180) translate(-30 -48)" onmousedown="handlePan(0,1)">
                  <use xlink:href="#rim" fill="#404040">
                        <set attributeName="fill" to="#808080" begin="arrowDown.mouseover" end="arrowDown.mouseout"/>
                  </use>
                  <path fill="none" stroke="white" stroke-width="1.5" d="M0,-3.0v7 M-2.5,-0.5L0,-3.0L2.5,-0.5"/>
                </g>
                <g id="arrowLeft" xlink:href="#dirArrow" transform="rotate(270) translate(-36 17)" onmousedown="handlePan(-1,0)">
                  <use xlink:href="#rim" fill="#404040">
                        <set attributeName="fill" to="#808080" begin="arrowLeft.mouseover" end="arrowLeft.mouseout"/>
                  </use>
                  <path fill="none" stroke="white" stroke-width="1.5" d="M0,-3.0v7 M-2.5,-0.5L0,-3.0L2.5,-0.5"/>
                </g>
        </g>
        <svg viewBox="0 0 15 15" width="100%" height="30px" preserveAspectRatio="xMaxYMin meet">
         <g id="arrow_out" transform="scale(0.3 0.3)">
          <a xlink:href="a00128_org.svg" target="_base">
           <rect id="button" ry="5" rx="5" y="6" x="6" height="38" width="38"
                fill="#f2f5e9" fill-opacity="0.5" stroke="#606060" stroke-width="1.0"/>
           <path id="arrow"
             d="M 11.500037,31.436501 C 11.940474,20.09759 22.043105,11.32322 32.158766,21.979434 L 37.068811,17.246167 C 37.068811,17.246167 37.088388,32 37.088388,32 L 22.160133,31.978069 C 22.160133,31.978069 26.997745,27.140456 26.997745,27.140456 C 18.528582,18.264221 13.291696,25.230495 11.500037,31.436501 z"
             style="fill:#404040;"/>
          </a>
         </g>
        </svg>
</svg>
