<?xml version="1.0" encoding="UTF-8" standalone="no"?>
<!DOCTYPE svg PUBLIC "-//W3C//DTD SVG 1.1//EN"
 "http://www.w3.org/Graphics/SVG/1.1/DTD/svg11.dtd">
<!-- Generated by graphviz version 2.36.0 (20140111.2315)
 -->
<!-- Title: GlobalRegistration::KdTree&lt; _Scalar, _Index &gt;::RangeQuery&lt; _stackSize &gt; Pages: 1 -->
<svg width="320pt" height="346pt"
 viewBox="0.00 0.00 320.00 346.00" xmlns="http://www.w3.org/2000/svg" xmlns:xlink="http://www.w3.org/1999/xlink">
<g id="graph0" class="graph" transform="scale(1 1) rotate(0) translate(4 342)">
<title>GlobalRegistration::KdTree&lt; _Scalar, _Index &gt;::RangeQuery&lt; _stackSize &gt;</title>
<polygon fill="white" stroke="none" points="-4,4 -4,-342 316,-342 316,4 -4,4"/>
<!-- Node1 -->
<g id="node1" class="node"><title>Node1</title>
<polygon fill="#bfbfbf" stroke="black" points="90,-1 90,-91 206,-91 206,-1 90,-1"/>
<text text-anchor="start" x="98" y="-79" font-family="Helvetica,sans-Serif" font-size="10.00">GlobalRegistration</text>
<text text-anchor="start" x="98" y="-68" font-family="Helvetica,sans-Serif" font-size="10.00">::KdTree&lt; _Scalar, </text>
<text text-anchor="start" x="98" y="-57" font-family="Helvetica,sans-Serif" font-size="10.00">_Index &gt;::RangeQuery</text>
<text text-anchor="middle" x="148" y="-46" font-family="Helvetica,sans-Serif" font-size="10.00">&lt; _stackSize &gt;</text>
<polyline fill="none" stroke="black" points="90,-39 206,-39 "/>
<text text-anchor="middle" x="148" y="-27" font-family="Helvetica,sans-Serif" font-size="10.00"> </text>
<polyline fill="none" stroke="black" points="90,-20 206,-20 "/>
<text text-anchor="middle" x="148" y="-8" font-family="Helvetica,sans-Serif" font-size="10.00"> </text>
</g>
<!-- Node2 -->
<g id="node2" class="node"><title>Node2</title>
<polygon fill="white" stroke="#bfbfbf" points="0,-157.5 0,-214.5 112,-214.5 112,-157.5 0,-157.5"/>
<text text-anchor="middle" x="56" y="-202.5" font-family="Helvetica,sans-Serif" font-size="10.00">Matrix&lt; Scalar, 3, 1 &gt;</text>
<polyline fill="none" stroke="#bfbfbf" points="0,-195.5 112,-195.5 "/>
<text text-anchor="middle" x="56" y="-183.5" font-family="Helvetica,sans-Serif" font-size="10.00"> </text>
<polyline fill="none" stroke="#bfbfbf" points="0,-176.5 112,-176.5 "/>
<text text-anchor="middle" x="56" y="-164.5" font-family="Helvetica,sans-Serif" font-size="10.00"> </text>
</g>
<!-- Node2&#45;&gt;Node1 -->
<g id="edge1" class="edge"><title>Node2&#45;&gt;Node1</title>
<path fill="none" stroke="#404040" d="M60.2901,-157.46C63.5094,-142.574 68.9663,-124.356 78,-110 80.0899,-106.679 82.4031,-103.427 84.8795,-100.26"/>
<polygon fill="none" stroke="#404040" points="84.958,-100.168 85.8024,-93.0061 92.7378,-91.0312 91.8934,-98.1927 84.958,-100.168"/>
<text text-anchor="middle" x="106" y="-113.5" font-family="Helvetica,sans-Serif" font-size="10.00"> +queryPoint</text>
</g>
<!-- Node3 -->
<g id="node3" class="node"><title>Node3</title>
<polygon fill="white" stroke="#bfbfbf" points="148,-280.5 148,-337.5 198,-337.5 198,-280.5 148,-280.5"/>
<text text-anchor="middle" x="173" y="-325.5" font-family="Helvetica,sans-Serif" font-size="10.00">_Scalar</text>
<polyline fill="none" stroke="#bfbfbf" points="148,-318.5 198,-318.5 "/>
<text text-anchor="middle" x="173" y="-306.5" font-family="Helvetica,sans-Serif" font-size="10.00"> </text>
<polyline fill="none" stroke="#bfbfbf" points="148,-299.5 198,-299.5 "/>
<text text-anchor="middle" x="173" y="-287.5" font-family="Helvetica,sans-Serif" font-size="10.00"> </text>
</g>
<!-- Node3&#45;&gt;Node1 -->
<g id="edge2" class="edge"><title>Node3&#45;&gt;Node1</title>
<path fill="none" stroke="#404040" d="M166.083,-280.386C162.772,-266.045 159.084,-248.182 157,-232 151.49,-189.206 149.284,-140.449 148.431,-103.736"/>
<polygon fill="none" stroke="#404040" points="148.422,-103.279 144.303,-97.36 148.183,-91.2814 152.302,-97.2005 148.422,-103.279"/>
<text text-anchor="middle" x="175" y="-183.5" font-family="Helvetica,sans-Serif" font-size="10.00"> +sqdist</text>
</g>
<!-- Node4 -->
<g id="node4" class="node"><title>Node4</title>
<g id="a_node4"><a xlink:href="a00044.html" target="_top" xlink:title="element of the stack ">
<polygon fill="white" stroke="black" points="202,-141 202,-231 312,-231 312,-141 202,-141"/>
<text text-anchor="start" x="210" y="-219" font-family="Helvetica,sans-Serif" font-size="10.00">GlobalRegistration</text>
<text text-anchor="start" x="210" y="-208" font-family="Helvetica,sans-Serif" font-size="10.00">::KdTree&lt; _Scalar, </text>
<text text-anchor="middle" x="257" y="-197" font-family="Helvetica,sans-Serif" font-size="10.00">_Index &gt;::QueryNode</text>
<polyline fill="none" stroke="black" points="202,-190 312,-190 "/>
<text text-anchor="middle" x="257" y="-178" font-family="Helvetica,sans-Serif" font-size="10.00"> </text>
<polyline fill="none" stroke="black" points="202,-171 312,-171 "/>
<text text-anchor="start" x="210" y="-159" font-family="Helvetica,sans-Serif" font-size="10.00">+ QueryNode()</text>
<text text-anchor="start" x="210" y="-148" font-family="Helvetica,sans-Serif" font-size="10.00">+ QueryNode()</text>
</a>
</g>
</g>
<!-- Node3&#45;&gt;Node4 -->
<g id="edge4" class="edge"><title>Node3&#45;&gt;Node4</title>
<path fill="none" stroke="#404040" d="M192.271,-280.24C200.3,-268.675 209.914,-254.827 219.245,-241.385"/>
<polygon fill="none" stroke="#404040" points="219.452,-241.087 219.588,-233.877 226.295,-231.23 226.159,-238.439 219.452,-241.087"/>
<text text-anchor="middle" x="223" y="-253.5" font-family="Helvetica,sans-Serif" font-size="10.00"> +sq</text>
</g>
<!-- Node4&#45;&gt;Node1 -->
<g id="edge3" class="edge"><title>Node4&#45;&gt;Node1</title>
<path fill="none" stroke="#404040" d="M222.212,-140.957C212.085,-128.135 200.908,-113.984 190.369,-100.641"/>
<polygon fill="none" stroke="#404040" points="190.269,-100.515 183.411,-98.2861 182.831,-91.0984 189.689,-93.3275 190.269,-100.515"/>
<text text-anchor="middle" x="234" y="-113.5" font-family="Helvetica,sans-Serif" font-size="10.00"> +nodeStack</text>
</g>
<!-- Node5 -->
<g id="node5" class="node"><title>Node5</title>
<polygon fill="white" stroke="#bfbfbf" points="242.5,-280.5 242.5,-337.5 271.5,-337.5 271.5,-280.5 242.5,-280.5"/>
<text text-anchor="middle" x="257" y="-325.5" font-family="Helvetica,sans-Serif" font-size="10.00">int</text>
<polyline fill="none" stroke="#bfbfbf" points="242.5,-318.5 271.5,-318.5 "/>
<text text-anchor="middle" x="257" y="-306.5" font-family="Helvetica,sans-Serif" font-size="10.00"> </text>
<polyline fill="none" stroke="#bfbfbf" points="242.5,-299.5 271.5,-299.5 "/>
<text text-anchor="middle" x="257" y="-287.5" font-family="Helvetica,sans-Serif" font-size="10.00"> </text>
</g>
<!-- Node5&#45;&gt;Node4 -->
<g id="edge5" class="edge"><title>Node5&#45;&gt;Node4</title>
<path fill="none" stroke="#404040" d="M257,-280.24C257,-269.242 257,-256.179 257,-243.364"/>
<polygon fill="none" stroke="#404040" points="257,-243.23 253,-237.23 257,-231.23 261,-237.23 257,-243.23"/>
<text text-anchor="middle" x="276.5" y="-253.5" font-family="Helvetica,sans-Serif" font-size="10.00"> +nodeId</text>
</g>
</g>
</svg>
