<?xml version="1.0" encoding="UTF-8" standalone="no"?>
<!DOCTYPE svg PUBLIC "-//W3C//DTD SVG 1.1//EN"
 "http://www.w3.org/Graphics/SVG/1.1/DTD/svg11.dtd">
<!-- Generated by graphviz version 2.36.0 (20140111.2315)
 -->
<!-- Title: GlobalRegistration::Match4PCSBase Pages: 1 -->
<svg width="238pt" height="248pt"
 viewBox="0.00 0.00 238.00 248.00" xmlns="http://www.w3.org/2000/svg" xmlns:xlink="http://www.w3.org/1999/xlink">
<g id="graph0" class="graph" transform="scale(1 1) rotate(0) translate(4 244)">
<title>GlobalRegistration::Match4PCSBase</title>
<polygon fill="white" stroke="none" points="-4,4 -4,-244 234,-244 234,4 -4,4"/>
<!-- Node1 -->
<g id="node1" class="node"><title>Node1</title>
<polygon fill="#bfbfbf" stroke="black" points="40,-116.5 40,-239.5 180,-239.5 180,-116.5 40,-116.5"/>
<text text-anchor="start" x="48" y="-227.5" font-family="Helvetica,sans-Serif" font-size="10.00">GlobalRegistration</text>
<text text-anchor="middle" x="110" y="-216.5" font-family="Helvetica,sans-Serif" font-size="10.00">::Match4PCSBase</text>
<polyline fill="none" stroke="black" points="40,-209.5 180,-209.5 "/>
<text text-anchor="start" x="48" y="-197.5" font-family="Helvetica,sans-Serif" font-size="10.00">+ kNumberOfDiameterTrials</text>
<text text-anchor="start" x="48" y="-186.5" font-family="Helvetica,sans-Serif" font-size="10.00">+ kLargeNumber</text>
<text text-anchor="start" x="48" y="-175.5" font-family="Helvetica,sans-Serif" font-size="10.00">+ distance_factor</text>
<polyline fill="none" stroke="black" points="40,-168.5 180,-168.5 "/>
<text text-anchor="start" x="48" y="-156.5" font-family="Helvetica,sans-Serif" font-size="10.00">+ ~Match4PCSBase()</text>
<text text-anchor="start" x="48" y="-145.5" font-family="Helvetica,sans-Serif" font-size="10.00">+ getFirstSampled()</text>
<text text-anchor="start" x="48" y="-134.5" font-family="Helvetica,sans-Serif" font-size="10.00">+ getSecondSampled()</text>
<text text-anchor="start" x="48" y="-123.5" font-family="Helvetica,sans-Serif" font-size="10.00">+ ComputeTransformation()</text>
</g>
<!-- Node2 -->
<g id="node2" class="node"><title>Node2</title>
<g id="a_node2"><a xlink:href="a00036.html" target="_top" xlink:title="Class for the computation of the 4PCS algorithm. ">
<polygon fill="white" stroke="black" points="-0.5,-0.5 -0.5,-79.5 96.5,-79.5 96.5,-0.5 -0.5,-0.5"/>
<text text-anchor="start" x="7.5" y="-67.5" font-family="Helvetica,sans-Serif" font-size="10.00">GlobalRegistration</text>
<text text-anchor="middle" x="48" y="-56.5" font-family="Helvetica,sans-Serif" font-size="10.00">::Match4PCS</text>
<polyline fill="none" stroke="black" points="-0.5,-49.5 96.5,-49.5 "/>
<text text-anchor="middle" x="48" y="-37.5" font-family="Helvetica,sans-Serif" font-size="10.00"> </text>
<polyline fill="none" stroke="black" points="-0.5,-30.5 96.5,-30.5 "/>
<text text-anchor="start" x="7.5" y="-18.5" font-family="Helvetica,sans-Serif" font-size="10.00">+ Match4PCS()</text>
<text text-anchor="start" x="7.5" y="-7.5" font-family="Helvetica,sans-Serif" font-size="10.00">+ ~Match4PCS()</text>
</a>
</g>
</g>
<!-- Node1&#45;&gt;Node2 -->
<g id="edge1" class="edge"><title>Node1&#45;&gt;Node2</title>
<path fill="none" stroke="midnightblue" d="M77.9926,-106.79C73.7176,-97.4127 69.4681,-88.0913 65.5698,-79.5403"/>
<polygon fill="none" stroke="midnightblue" points="74.9313,-108.513 82.2641,-116.16 81.3007,-105.609 74.9313,-108.513"/>
</g>
<!-- Node3 -->
<g id="node3" class="node"><title>Node3</title>
<g id="a_node3"><a xlink:href="a00039.html" target="_top" xlink:title="Class for the computation of the 4PCS algorithm. ">
<polygon fill="white" stroke="black" points="114,-0.5 114,-79.5 230,-79.5 230,-0.5 114,-0.5"/>
<text text-anchor="start" x="122" y="-67.5" font-family="Helvetica,sans-Serif" font-size="10.00">GlobalRegistration</text>
<text text-anchor="middle" x="172" y="-56.5" font-family="Helvetica,sans-Serif" font-size="10.00">::MatchSuper4PCS</text>
<polyline fill="none" stroke="black" points="114,-49.5 230,-49.5 "/>
<text text-anchor="middle" x="172" y="-37.5" font-family="Helvetica,sans-Serif" font-size="10.00"> </text>
<polyline fill="none" stroke="black" points="114,-30.5 230,-30.5 "/>
<text text-anchor="start" x="122" y="-18.5" font-family="Helvetica,sans-Serif" font-size="10.00">+ MatchSuper4PCS()</text>
<text text-anchor="start" x="122" y="-7.5" font-family="Helvetica,sans-Serif" font-size="10.00">+ ~MatchSuper4PCS()</text>
</a>
</g>
</g>
<!-- Node1&#45;&gt;Node3 -->
<g id="edge2" class="edge"><title>Node1&#45;&gt;Node3</title>
<path fill="none" stroke="midnightblue" d="M142.007,-106.79C146.282,-97.4127 150.532,-88.0913 154.43,-79.5403"/>
<polygon fill="none" stroke="midnightblue" points="138.699,-105.609 137.736,-116.16 145.069,-108.513 138.699,-105.609"/>
</g>
</g>
</svg>
