<?xml version="1.0" encoding="UTF-8" standalone="no"?>
<!DOCTYPE svg PUBLIC "-//W3C//DTD SVG 1.1//EN"
 "http://www.w3.org/Graphics/SVG/1.1/DTD/svg11.dtd">
<!-- Generated by graphviz version 2.36.0 (20140111.2315)
 -->
<!-- Title: GlobalRegistration::Match4PCSBase Pages: 1 -->
<svg width="270pt" height="226pt"
 viewBox="0.00 0.00 270.00 226.00" xmlns="http://www.w3.org/2000/svg" xmlns:xlink="http://www.w3.org/1999/xlink">
<g id="graph0" class="graph" transform="scale(1 1) rotate(0) translate(4 222)">
<title>GlobalRegistration::Match4PCSBase</title>
<polygon fill="white" stroke="none" points="-4,4 -4,-222 266,-222 266,4 -4,4"/>
<!-- Node1 -->
<g id="node1" class="node"><title>Node1</title>
<polygon fill="#bfbfbf" stroke="black" points="37.5,-0.5 37.5,-101.5 174.5,-101.5 174.5,-0.5 37.5,-0.5"/>
<text text-anchor="start" x="45.5" y="-89.5" font-family="Helvetica,sans-Serif" font-size="10.00">GlobalRegistration</text>
<text text-anchor="middle" x="106" y="-78.5" font-family="Helvetica,sans-Serif" font-size="10.00">::Match4PCSBase</text>
<polyline fill="none" stroke="black" points="37.5,-71.5 174.5,-71.5 "/>
<text text-anchor="middle" x="106" y="-59.5" font-family="Helvetica,sans-Serif" font-size="10.00"> </text>
<polyline fill="none" stroke="black" points="37.5,-52.5 174.5,-52.5 "/>
<text text-anchor="start" x="45.5" y="-40.5" font-family="Helvetica,sans-Serif" font-size="10.00">+ ~Match4PCSBase()</text>
<text text-anchor="start" x="45.5" y="-29.5" font-family="Helvetica,sans-Serif" font-size="10.00">+ getFirstSampled()</text>
<text text-anchor="start" x="45.5" y="-18.5" font-family="Helvetica,sans-Serif" font-size="10.00">+ getSecondSampled()</text>
<text text-anchor="start" x="45.5" y="-7.5" font-family="Helvetica,sans-Serif" font-size="10.00">+ ComputeTransformation()</text>
</g>
<!-- Node2 -->
<g id="node2" class="node"><title>Node2</title>
<polygon fill="white" stroke="#bfbfbf" points="-0.5,-160.5 -0.5,-217.5 116.5,-217.5 116.5,-160.5 -0.5,-160.5"/>
<text text-anchor="middle" x="58" y="-205.5" font-family="Helvetica,sans-Serif" font-size="10.00">static constexpr Scalar</text>
<polyline fill="none" stroke="#bfbfbf" points="-0.5,-198.5 116.5,-198.5 "/>
<text text-anchor="middle" x="58" y="-186.5" font-family="Helvetica,sans-Serif" font-size="10.00"> </text>
<polyline fill="none" stroke="#bfbfbf" points="-0.5,-179.5 116.5,-179.5 "/>
<text text-anchor="middle" x="58" y="-167.5" font-family="Helvetica,sans-Serif" font-size="10.00"> </text>
</g>
<!-- Node2&#45;&gt;Node1 -->
<g id="edge1" class="edge"><title>Node2&#45;&gt;Node1</title>
<path fill="none" stroke="#404040" d="M54.7948,-160.277C54.2502,-147.706 54.8973,-132.819 59,-120 59.8175,-117.446 60.766,-114.902 61.8222,-112.381"/>
<polygon fill="none" stroke="#404040" points="61.8531,-112.317 60.8589,-105.175 67.0693,-101.51 68.0636,-108.652 61.8531,-112.317"/>
<text text-anchor="middle" x="95.5" y="-134" font-family="Helvetica,sans-Serif" font-size="10.00"> +kLargeNumber</text>
<text text-anchor="middle" x="95.5" y="-123" font-family="Helvetica,sans-Serif" font-size="10.00">+distance_factor</text>
</g>
<!-- Node3 -->
<g id="node3" class="node"><title>Node3</title>
<polygon fill="white" stroke="#bfbfbf" points="139.5,-160.5 139.5,-217.5 168.5,-217.5 168.5,-160.5 139.5,-160.5"/>
<text text-anchor="middle" x="154" y="-205.5" font-family="Helvetica,sans-Serif" font-size="10.00">int</text>
<polyline fill="none" stroke="#bfbfbf" points="139.5,-198.5 168.5,-198.5 "/>
<text text-anchor="middle" x="154" y="-186.5" font-family="Helvetica,sans-Serif" font-size="10.00"> </text>
<polyline fill="none" stroke="#bfbfbf" points="139.5,-179.5 168.5,-179.5 "/>
<text text-anchor="middle" x="154" y="-167.5" font-family="Helvetica,sans-Serif" font-size="10.00"> </text>
</g>
<!-- Node3&#45;&gt;Node1 -->
<g id="edge2" class="edge"><title>Node3&#45;&gt;Node1</title>
<path fill="none" stroke="#404040" d="M145.44,-160.428C141.496,-148.022 136.663,-133.223 132,-120 131.212,-117.765 130.4,-115.493 129.571,-113.201"/>
<polygon fill="none" stroke="#404040" points="129.467,-112.918 123.644,-108.665 125.329,-101.654 131.153,-105.907 129.467,-112.918"/>
<text text-anchor="middle" x="200" y="-128.5" font-family="Helvetica,sans-Serif" font-size="10.00"> +kNumberOfDiameterTrials</text>
</g>
</g>
</svg>
