<?xml version="1.0" encoding="UTF-8" standalone="no"?>
<!DOCTYPE svg PUBLIC "-//W3C//DTD SVG 1.1//EN"
 "http://www.w3.org/Graphics/SVG/1.1/DTD/svg11.dtd">
<!-- Generated by graphviz version 2.36.0 (20140111.2315)
 -->
<!-- Title: GlobalRegistration::MatchSuper4PCS Pages: 1 -->
<svg width="270pt" height="344pt"
 viewBox="0.00 0.00 270.00 344.00" xmlns="http://www.w3.org/2000/svg" xmlns:xlink="http://www.w3.org/1999/xlink">
<g id="graph0" class="graph" transform="scale(1 1) rotate(0) translate(4 340)">
<title>GlobalRegistration::MatchSuper4PCS</title>
<polygon fill="white" stroke="none" points="-4,4 -4,-340 266,-340 266,4 -4,4"/>
<!-- Node1 -->
<g id="node1" class="node"><title>Node1</title>
<polygon fill="#bfbfbf" stroke="black" points="48,-0.5 48,-79.5 164,-79.5 164,-0.5 48,-0.5"/>
<text text-anchor="start" x="56" y="-67.5" font-family="Helvetica,sans-Serif" font-size="10.00">GlobalRegistration</text>
<text text-anchor="middle" x="106" y="-56.5" font-family="Helvetica,sans-Serif" font-size="10.00">::MatchSuper4PCS</text>
<polyline fill="none" stroke="black" points="48,-49.5 164,-49.5 "/>
<text text-anchor="middle" x="106" y="-37.5" font-family="Helvetica,sans-Serif" font-size="10.00"> </text>
<polyline fill="none" stroke="black" points="48,-30.5 164,-30.5 "/>
<text text-anchor="start" x="56" y="-18.5" font-family="Helvetica,sans-Serif" font-size="10.00">+ MatchSuper4PCS()</text>
<text text-anchor="start" x="56" y="-7.5" font-family="Helvetica,sans-Serif" font-size="10.00">+ ~MatchSuper4PCS()</text>
</g>
<!-- Node2 -->
<g id="node2" class="node"><title>Node2</title>
<g id="a_node2"><a xlink:href="a00037.html" target="_top" xlink:title="{GlobalRegistration\l::Match4PCSBase\n||+ ~Match4PCSBase()\l+ getFirstSampled()\l+ getSecondSampled()\l+ ComputeTransformation()\l}">
<polygon fill="white" stroke="black" points="37.5,-118.5 37.5,-219.5 174.5,-219.5 174.5,-118.5 37.5,-118.5"/>
<text text-anchor="start" x="45.5" y="-207.5" font-family="Helvetica,sans-Serif" font-size="10.00">GlobalRegistration</text>
<text text-anchor="middle" x="106" y="-196.5" font-family="Helvetica,sans-Serif" font-size="10.00">::Match4PCSBase</text>
<polyline fill="none" stroke="black" points="37.5,-189.5 174.5,-189.5 "/>
<text text-anchor="middle" x="106" y="-177.5" font-family="Helvetica,sans-Serif" font-size="10.00"> </text>
<polyline fill="none" stroke="black" points="37.5,-170.5 174.5,-170.5 "/>
<text text-anchor="start" x="45.5" y="-158.5" font-family="Helvetica,sans-Serif" font-size="10.00">+ ~Match4PCSBase()</text>
<text text-anchor="start" x="45.5" y="-147.5" font-family="Helvetica,sans-Serif" font-size="10.00">+ getFirstSampled()</text>
<text text-anchor="start" x="45.5" y="-136.5" font-family="Helvetica,sans-Serif" font-size="10.00">+ getSecondSampled()</text>
<text text-anchor="start" x="45.5" y="-125.5" font-family="Helvetica,sans-Serif" font-size="10.00">+ ComputeTransformation()</text>
</a>
</g>
</g>
<!-- Node2&#45;&gt;Node1 -->
<g id="edge1" class="edge"><title>Node2&#45;&gt;Node1</title>
<path fill="none" stroke="midnightblue" d="M106,-108.164C106,-98.4862 106,-88.6942 106,-79.6916"/>
<polygon fill="none" stroke="midnightblue" points="102.5,-108.171 106,-118.171 109.5,-108.171 102.5,-108.171"/>
</g>
<!-- Node3 -->
<g id="node3" class="node"><title>Node3</title>
<polygon fill="white" stroke="#bfbfbf" points="-0.5,-278.5 -0.5,-335.5 116.5,-335.5 116.5,-278.5 -0.5,-278.5"/>
<text text-anchor="middle" x="58" y="-323.5" font-family="Helvetica,sans-Serif" font-size="10.00">static constexpr Scalar</text>
<polyline fill="none" stroke="#bfbfbf" points="-0.5,-316.5 116.5,-316.5 "/>
<text text-anchor="middle" x="58" y="-304.5" font-family="Helvetica,sans-Serif" font-size="10.00"> </text>
<polyline fill="none" stroke="#bfbfbf" points="-0.5,-297.5 116.5,-297.5 "/>
<text text-anchor="middle" x="58" y="-285.5" font-family="Helvetica,sans-Serif" font-size="10.00"> </text>
</g>
<!-- Node3&#45;&gt;Node2 -->
<g id="edge2" class="edge"><title>Node3&#45;&gt;Node2</title>
<path fill="none" stroke="#404040" d="M54.7948,-278.277C54.2502,-265.706 54.8973,-250.819 59,-238 59.8175,-235.446 60.766,-232.902 61.8222,-230.381"/>
<polygon fill="none" stroke="#404040" points="61.8531,-230.317 60.8589,-223.175 67.0693,-219.51 68.0636,-226.652 61.8531,-230.317"/>
<text text-anchor="middle" x="95.5" y="-252" font-family="Helvetica,sans-Serif" font-size="10.00"> +kLargeNumber</text>
<text text-anchor="middle" x="95.5" y="-241" font-family="Helvetica,sans-Serif" font-size="10.00">+distance_factor</text>
</g>
<!-- Node4 -->
<g id="node4" class="node"><title>Node4</title>
<polygon fill="white" stroke="#bfbfbf" points="139.5,-278.5 139.5,-335.5 168.5,-335.5 168.5,-278.5 139.5,-278.5"/>
<text text-anchor="middle" x="154" y="-323.5" font-family="Helvetica,sans-Serif" font-size="10.00">int</text>
<polyline fill="none" stroke="#bfbfbf" points="139.5,-316.5 168.5,-316.5 "/>
<text text-anchor="middle" x="154" y="-304.5" font-family="Helvetica,sans-Serif" font-size="10.00"> </text>
<polyline fill="none" stroke="#bfbfbf" points="139.5,-297.5 168.5,-297.5 "/>
<text text-anchor="middle" x="154" y="-285.5" font-family="Helvetica,sans-Serif" font-size="10.00"> </text>
</g>
<!-- Node4&#45;&gt;Node2 -->
<g id="edge3" class="edge"><title>Node4&#45;&gt;Node2</title>
<path fill="none" stroke="#404040" d="M145.44,-278.428C141.496,-266.022 136.663,-251.223 132,-238 131.212,-235.765 130.4,-233.493 129.571,-231.201"/>
<polygon fill="none" stroke="#404040" points="129.467,-230.918 123.644,-226.665 125.329,-219.654 131.153,-223.907 129.467,-230.918"/>
<text text-anchor="middle" x="200" y="-246.5" font-family="Helvetica,sans-Serif" font-size="10.00"> +kNumberOfDiameterTrials</text>
</g>
</g>
</svg>
