<?xml version="1.0" encoding="UTF-8" standalone="no"?>
<!DOCTYPE svg PUBLIC "-//W3C//DTD SVG 1.1//EN"
 "http://www.w3.org/Graphics/SVG/1.1/DTD/svg11.dtd">
<!-- Generated by graphviz version 2.36.0 (20140111.2315)
 -->
<!-- Title: GlobalRegistration::Quadrilateral Pages: 1 -->
<svg width="145pt" height="440pt"
 viewBox="0.00 0.00 145.00 440.00" xmlns="http://www.w3.org/2000/svg" xmlns:xlink="http://www.w3.org/1999/xlink">
<g id="graph0" class="graph" transform="scale(1 1) rotate(0) translate(4 436)">
<title>GlobalRegistration::Quadrilateral</title>
<polygon fill="white" stroke="none" points="-4,4 -4,-436 141,-436 141,4 -4,4"/>
<!-- Node1 -->
<g id="node1" class="node"><title>Node1</title>
<polygon fill="#bfbfbf" stroke="black" points="1.5,-1 1.5,-113 98.5,-113 98.5,-1 1.5,-1"/>
<text text-anchor="start" x="9.5" y="-101" font-family="Helvetica,sans-Serif" font-size="10.00">GlobalRegistration</text>
<text text-anchor="middle" x="50" y="-90" font-family="Helvetica,sans-Serif" font-size="10.00">::Quadrilateral</text>
<polyline fill="none" stroke="black" points="1.5,-83 98.5,-83 "/>
<text text-anchor="middle" x="50" y="-71" font-family="Helvetica,sans-Serif" font-size="10.00"> </text>
<polyline fill="none" stroke="black" points="1.5,-64 98.5,-64 "/>
<text text-anchor="start" x="9.5" y="-52" font-family="Helvetica,sans-Serif" font-size="10.00">+ Quadrilateral()</text>
<text text-anchor="start" x="9.5" y="-41" font-family="Helvetica,sans-Serif" font-size="10.00">+ operator&lt;()</text>
<text text-anchor="start" x="9.5" y="-30" font-family="Helvetica,sans-Serif" font-size="10.00">+ operator==()</text>
<text text-anchor="start" x="9.5" y="-19" font-family="Helvetica,sans-Serif" font-size="10.00">+ operator[]()</text>
<text text-anchor="start" x="9.5" y="-8" font-family="Helvetica,sans-Serif" font-size="10.00">+ operator[]()</text>
</g>
<!-- Node2 -->
<g id="node2" class="node"><title>Node2</title>
<polygon fill="white" stroke="#bfbfbf" points="1,-162.5 1,-219.5 99,-219.5 99,-162.5 1,-162.5"/>
<text text-anchor="middle" x="50" y="-207.5" font-family="Helvetica,sans-Serif" font-size="10.00">std::array&lt; int, 4 &gt;</text>
<polyline fill="none" stroke="#bfbfbf" points="1,-200.5 99,-200.5 "/>
<text text-anchor="middle" x="50" y="-188.5" font-family="Helvetica,sans-Serif" font-size="10.00"> </text>
<polyline fill="none" stroke="#bfbfbf" points="1,-181.5 99,-181.5 "/>
<text text-anchor="middle" x="50" y="-169.5" font-family="Helvetica,sans-Serif" font-size="10.00"> </text>
</g>
<!-- Node2&#45;&gt;Node1 -->
<g id="edge1" class="edge"><title>Node2&#45;&gt;Node1</title>
<path fill="none" stroke="#404040" d="M50,-162.328C50,-151.389 50,-138.3 50,-125.15"/>
<polygon fill="none" stroke="#404040" points="50.0001,-125.116 46,-119.116 50,-113.116 54,-119.116 50.0001,-125.116"/>
<text text-anchor="middle" x="72" y="-135.5" font-family="Helvetica,sans-Serif" font-size="10.00"> +vertices</text>
</g>
<!-- Node3 -->
<g id="node3" class="node"><title>Node3</title>
<polygon fill="white" stroke="#bfbfbf" points="-0.5,-268.5 -0.5,-325.5 28.5,-325.5 28.5,-268.5 -0.5,-268.5"/>
<text text-anchor="middle" x="14" y="-313.5" font-family="Helvetica,sans-Serif" font-size="10.00">int</text>
<polyline fill="none" stroke="#bfbfbf" points="-0.5,-306.5 28.5,-306.5 "/>
<text text-anchor="middle" x="14" y="-294.5" font-family="Helvetica,sans-Serif" font-size="10.00"> </text>
<polyline fill="none" stroke="#bfbfbf" points="-0.5,-287.5 28.5,-287.5 "/>
<text text-anchor="middle" x="14" y="-275.5" font-family="Helvetica,sans-Serif" font-size="10.00"> </text>
</g>
<!-- Node3&#45;&gt;Node2 -->
<g id="edge2" class="edge"><title>Node3&#45;&gt;Node2</title>
<path fill="none" stroke="#404040" d="M11.6276,-268.235C11.6521,-258.445 12.6829,-247.514 16,-238 16.9379,-235.31 18.0926,-232.645 19.4037,-230.034"/>
<polygon fill="none" stroke="#404040" points="19.4204,-230.005 19.0251,-222.805 25.5194,-219.671 25.9148,-226.871 19.4204,-230.005"/>
<text text-anchor="middle" x="40.5" y="-241.5" font-family="Helvetica,sans-Serif" font-size="10.00"> +elements</text>
</g>
<!-- Node4 -->
<g id="node4" class="node"><title>Node4</title>
<g id="a_node4"><a xlink:title="STL class. ">
<polygon fill="white" stroke="#bfbfbf" points="47,-268.5 47,-325.5 129,-325.5 129,-268.5 47,-268.5"/>
<text text-anchor="middle" x="88" y="-313.5" font-family="Helvetica,sans-Serif" font-size="10.00">std::array&lt; T &gt;</text>
<polyline fill="none" stroke="#bfbfbf" points="47,-306.5 129,-306.5 "/>
<text text-anchor="middle" x="88" y="-294.5" font-family="Helvetica,sans-Serif" font-size="10.00"> </text>
<polyline fill="none" stroke="#bfbfbf" points="47,-287.5 129,-287.5 "/>
<text text-anchor="middle" x="88" y="-275.5" font-family="Helvetica,sans-Serif" font-size="10.00"> </text>
</a>
</g>
</g>
<!-- Node4&#45;&gt;Node2 -->
<g id="edge3" class="edge"><title>Node4&#45;&gt;Node2</title>
<path fill="none" stroke="orange" d="M74.4289,-258.858C69.7161,-245.96 64.5169,-231.73 60.1307,-219.726"/>
<polygon fill="orange" stroke="orange" points="71.197,-260.211 77.9165,-268.403 77.7719,-257.809 71.197,-260.211"/>
<text text-anchor="middle" x="92.5" y="-241.5" font-family="Helvetica,sans-Serif" font-size="10.00"> &lt; int, 4 &gt;</text>
</g>
<!-- Node5 -->
<g id="node5" class="node"><title>Node5</title>
<polygon fill="white" stroke="#bfbfbf" points="73.5,-374.5 73.5,-431.5 102.5,-431.5 102.5,-374.5 73.5,-374.5"/>
<text text-anchor="middle" x="88" y="-419.5" font-family="Helvetica,sans-Serif" font-size="10.00">T</text>
<polyline fill="none" stroke="#bfbfbf" points="73.5,-412.5 102.5,-412.5 "/>
<text text-anchor="middle" x="88" y="-400.5" font-family="Helvetica,sans-Serif" font-size="10.00"> </text>
<polyline fill="none" stroke="#bfbfbf" points="73.5,-393.5 102.5,-393.5 "/>
<text text-anchor="middle" x="88" y="-381.5" font-family="Helvetica,sans-Serif" font-size="10.00"> </text>
</g>
<!-- Node5&#45;&gt;Node4 -->
<g id="edge4" class="edge"><title>Node5&#45;&gt;Node4</title>
<path fill="none" stroke="#404040" d="M88,-374.403C88,-363.237 88,-350.13 88,-337.956"/>
<polygon fill="none" stroke="#404040" points="88.0001,-337.726 84,-331.726 88,-325.726 92,-331.726 88.0001,-337.726"/>
<text text-anchor="middle" x="112.5" y="-347.5" font-family="Helvetica,sans-Serif" font-size="10.00"> +elements</text>
</g>
</g>
</svg>
