<?xml version="1.0" encoding="UTF-8" standalone="no"?>
<!DOCTYPE svg PUBLIC "-//W3C//DTD SVG 1.1//EN"
 "http://www.w3.org/Graphics/SVG/1.1/DTD/svg11.dtd">
<!-- Generated by graphviz version 2.36.0 (20140111.2315)
 -->
<!-- Title: GlobalRegistration::AABB&lt; _Scalar, _Dim &gt; Pages: 1 -->
<svg width="166pt" height="206pt"
 viewBox="0.00 0.00 166.00 206.00" xmlns="http://www.w3.org/2000/svg" xmlns:xlink="http://www.w3.org/1999/xlink">
<g id="graph0" class="graph" transform="scale(1 1) rotate(0) translate(4 202)">
<title>GlobalRegistration::AABB&lt; _Scalar, _Dim &gt;</title>
<polygon fill="white" stroke="none" points="-4,4 -4,-202 162,-202 162,4 -4,4"/>
<!-- Node1 -->
<g id="node1" class="node"><title>Node1</title>
<polygon fill="#bfbfbf" stroke="black" points="28,-0.5 28,-79.5 158,-79.5 158,-0.5 28,-0.5"/>
<text text-anchor="start" x="36" y="-67.5" font-family="Helvetica,sans-Serif" font-size="10.00">GlobalRegistration</text>
<text text-anchor="middle" x="93" y="-56.5" font-family="Helvetica,sans-Serif" font-size="10.00">::AABB&lt; _Scalar, _Dim &gt;</text>
<polyline fill="none" stroke="black" points="28,-49.5 158,-49.5 "/>
<text text-anchor="middle" x="93" y="-37.5" font-family="Helvetica,sans-Serif" font-size="10.00"> </text>
<polyline fill="none" stroke="black" points="28,-30.5 158,-30.5 "/>
<text text-anchor="start" x="36" y="-18.5" font-family="Helvetica,sans-Serif" font-size="10.00">+ AABB()</text>
<text text-anchor="start" x="36" y="-7.5" font-family="Helvetica,sans-Serif" font-size="10.00">+ extend()</text>
</g>
<!-- Node2 -->
<g id="node2" class="node"><title>Node2</title>
<polygon fill="white" stroke="#bfbfbf" points="-0.5,-129 -0.5,-197 102.5,-197 102.5,-129 -0.5,-129"/>
<text text-anchor="start" x="7.5" y="-185" font-family="Helvetica,sans-Serif" font-size="10.00">Eigen::AlignedBox&lt;</text>
<text text-anchor="middle" x="51" y="-174" font-family="Helvetica,sans-Serif" font-size="10.00"> _Scalar, _Dim &gt;</text>
<polyline fill="none" stroke="#bfbfbf" points="-0.5,-167 102.5,-167 "/>
<text text-anchor="middle" x="51" y="-155" font-family="Helvetica,sans-Serif" font-size="10.00"> </text>
<polyline fill="none" stroke="#bfbfbf" points="-0.5,-148 102.5,-148 "/>
<text text-anchor="middle" x="51" y="-136" font-family="Helvetica,sans-Serif" font-size="10.00"> </text>
</g>
<!-- Node2&#45;&gt;Node1 -->
<g id="edge1" class="edge"><title>Node2&#45;&gt;Node1</title>
<path fill="none" stroke="midnightblue" d="M65.8147,-119.32C70.3054,-106.382 75.2105,-92.2506 79.6027,-79.597"/>
<polygon fill="none" stroke="midnightblue" points="62.4494,-118.341 62.4767,-128.936 69.0624,-120.637 62.4494,-118.341"/>
</g>
<!-- Node3 -->
<g id="node3" class="node"><title>Node3</title>
<polygon fill="white" stroke="#bfbfbf" points="120.5,-134.5 120.5,-191.5 149.5,-191.5 149.5,-134.5 120.5,-134.5"/>
<text text-anchor="middle" x="135" y="-179.5" font-family="Helvetica,sans-Serif" font-size="10.00">int</text>
<polyline fill="none" stroke="#bfbfbf" points="120.5,-172.5 149.5,-172.5 "/>
<text text-anchor="middle" x="135" y="-160.5" font-family="Helvetica,sans-Serif" font-size="10.00"> </text>
<polyline fill="none" stroke="#bfbfbf" points="120.5,-153.5 149.5,-153.5 "/>
<text text-anchor="middle" x="135" y="-141.5" font-family="Helvetica,sans-Serif" font-size="10.00"> </text>
</g>
<!-- Node3&#45;&gt;Node1 -->
<g id="edge2" class="edge"><title>Node3&#45;&gt;Node1</title>
<path fill="none" stroke="#404040" d="M125.364,-134.24C120.931,-121.467 115.53,-105.909 110.421,-91.1892"/>
<polygon fill="none" stroke="#404040" points="110.345,-90.9699 104.599,-86.6134 106.41,-79.6334 112.156,-83.99 110.345,-90.9699"/>
<text text-anchor="middle" x="130" y="-101.5" font-family="Helvetica,sans-Serif" font-size="10.00"> +Dim</text>
</g>
</g>
</svg>
