<?xml version="1.0" encoding="UTF-8" standalone="no"?>
<!DOCTYPE svg PUBLIC "-//W3C//DTD SVG 1.1//EN"
 "http://www.w3.org/Graphics/SVG/1.1/DTD/svg11.dtd">
<!-- Generated by graphviz version 2.36.0 (20140111.2315)
 -->
<!-- Title: GlobalRegistration::KdTree&lt; _Scalar, _Index &gt;::QueryNode Pages: 1 -->
<svg width="120pt" height="206pt"
 viewBox="0.00 0.00 120.00 206.00" xmlns="http://www.w3.org/2000/svg" xmlns:xlink="http://www.w3.org/1999/xlink">
<g id="graph0" class="graph" transform="scale(1 1) rotate(0) translate(4 202)">
<title>GlobalRegistration::KdTree&lt; _Scalar, _Index &gt;::QueryNode</title>
<polygon fill="white" stroke="none" points="-4,4 -4,-202 116,-202 116,4 -4,4"/>
<!-- Node1 -->
<g id="node1" class="node"><title>Node1</title>
<polygon fill="#bfbfbf" stroke="black" points="0,-1 0,-91 110,-91 110,-1 0,-1"/>
<text text-anchor="start" x="8" y="-79" font-family="Helvetica,sans-Serif" font-size="10.00">GlobalRegistration</text>
<text text-anchor="start" x="8" y="-68" font-family="Helvetica,sans-Serif" font-size="10.00">::KdTree&lt; _Scalar, </text>
<text text-anchor="middle" x="55" y="-57" font-family="Helvetica,sans-Serif" font-size="10.00">_Index &gt;::QueryNode</text>
<polyline fill="none" stroke="black" points="0,-50 110,-50 "/>
<text text-anchor="middle" x="55" y="-38" font-family="Helvetica,sans-Serif" font-size="10.00"> </text>
<polyline fill="none" stroke="black" points="0,-31 110,-31 "/>
<text text-anchor="start" x="8" y="-19" font-family="Helvetica,sans-Serif" font-size="10.00">+ QueryNode()</text>
<text text-anchor="start" x="8" y="-8" font-family="Helvetica,sans-Serif" font-size="10.00">+ QueryNode()</text>
</g>
<!-- Node2 -->
<g id="node2" class="node"><title>Node2</title>
<polygon fill="white" stroke="#bfbfbf" points="1,-140.5 1,-197.5 51,-197.5 51,-140.5 1,-140.5"/>
<text text-anchor="middle" x="26" y="-185.5" font-family="Helvetica,sans-Serif" font-size="10.00">_Scalar</text>
<polyline fill="none" stroke="#bfbfbf" points="1,-178.5 51,-178.5 "/>
<text text-anchor="middle" x="26" y="-166.5" font-family="Helvetica,sans-Serif" font-size="10.00"> </text>
<polyline fill="none" stroke="#bfbfbf" points="1,-159.5 51,-159.5 "/>
<text text-anchor="middle" x="26" y="-147.5" font-family="Helvetica,sans-Serif" font-size="10.00"> </text>
</g>
<!-- Node2&#45;&gt;Node1 -->
<g id="edge1" class="edge"><title>Node2&#45;&gt;Node1</title>
<path fill="none" stroke="#404040" d="M32.6532,-140.24C35.3162,-129.129 38.4845,-115.909 41.5862,-102.968"/>
<polygon fill="none" stroke="#404040" points="41.6026,-102.899 39.1112,-96.132 44.3995,-91.2295 46.8909,-97.9966 41.6026,-102.899"/>
<text text-anchor="middle" x="50" y="-113.5" font-family="Helvetica,sans-Serif" font-size="10.00"> +sq</text>
</g>
<!-- Node3 -->
<g id="node3" class="node"><title>Node3</title>
<polygon fill="white" stroke="#bfbfbf" points="69.5,-140.5 69.5,-197.5 98.5,-197.5 98.5,-140.5 69.5,-140.5"/>
<text text-anchor="middle" x="84" y="-185.5" font-family="Helvetica,sans-Serif" font-size="10.00">int</text>
<polyline fill="none" stroke="#bfbfbf" points="69.5,-178.5 98.5,-178.5 "/>
<text text-anchor="middle" x="84" y="-166.5" font-family="Helvetica,sans-Serif" font-size="10.00"> </text>
<polyline fill="none" stroke="#bfbfbf" points="69.5,-159.5 98.5,-159.5 "/>
<text text-anchor="middle" x="84" y="-147.5" font-family="Helvetica,sans-Serif" font-size="10.00"> </text>
</g>
<!-- Node3&#45;&gt;Node1 -->
<g id="edge2" class="edge"><title>Node3&#45;&gt;Node1</title>
<path fill="none" stroke="#404040" d="M77.3468,-140.24C74.6838,-129.129 71.5155,-115.909 68.4138,-102.968"/>
<polygon fill="none" stroke="#404040" points="68.3974,-102.899 63.1091,-97.9966 65.6005,-91.2295 70.8888,-96.132 68.3974,-102.899"/>
<text text-anchor="middle" x="92.5" y="-113.5" font-family="Helvetica,sans-Serif" font-size="10.00"> +nodeId</text>
</g>
</g>
</svg>
