<?xml version="1.0" encoding="UTF-8" standalone="no"?>
<!DOCTYPE svg PUBLIC "-//W3C//DTD SVG 1.1//EN"
 "http://www.w3.org/Graphics/SVG/1.1/DTD/svg11.dtd">
<!-- Generated by graphviz version 2.36.0 (20140111.2315)
 -->
<!-- Title: /home/travis/build/STORM&#45;IRIT/OpenGR/src/super4pcs Pages: 1 -->
<svg width="430pt" height="111pt"
 viewBox="0.00 0.00 430.00 111.00" xmlns="http://www.w3.org/2000/svg" xmlns:xlink="http://www.w3.org/1999/xlink">
<g id="graph0" class="graph" transform="scale(1 1) rotate(0) translate(4 107)">
<title>/home/travis/build/STORM&#45;IRIT/OpenGR/src/super4pcs</title>
<polygon fill="white" stroke="none" points="-4,4 -4,-107 426,-107 426,4 -4,4"/>
<g id="clust1" class="cluster"><title>clusterdir_f5be57efc2241f20c80e3c5cc7ad8890</title>
<g id="a_clust1"><a xlink:href="dir_f5be57efc2241f20c80e3c5cc7ad8890.html" target="_top" xlink:title="src">
<polygon fill="#ddddee" stroke="black" points="8,-8 8,-95 414,-95 414,-8 8,-8"/>
<text text-anchor="middle" x="211" y="-83" font-family="Helvetica,sans-Serif" font-size="10.00">src</text>
</a>
</g>
</g>
<g id="clust2" class="cluster"><title>clusterdir_357953976baa1d85357fde127780764b</title>
<g id="a_clust2"><a xlink:href="dir_357953976baa1d85357fde127780764b.html" target="_top">
<polygon fill="#eeeeff" stroke="black" points="16,-16 16,-68 406,-68 406,-16 16,-16"/>
</a>
</g>
</g>
<!-- dir_357953976baa1d85357fde127780764b -->
<g id="node1" class="node"><title>dir_357953976baa1d85357fde127780764b</title>
<text text-anchor="middle" x="367" y="-39.5" font-family="Helvetica,sans-Serif" font-size="10.00">super4pcs</text>
</g>
<!-- dir_211e6a82c313d642500e75b1075a19eb -->
<g id="node2" class="node"><title>dir_211e6a82c313d642500e75b1075a19eb</title>
<g id="a_node2"><a xlink:href="dir_211e6a82c313d642500e75b1075a19eb.html" target="_top" xlink:title="accelerators">
<polygon fill="white" stroke="red" points="318,-60 248,-60 248,-24 318,-24 318,-60"/>
<text text-anchor="middle" x="283" y="-39.5" font-family="Helvetica,sans-Serif" font-size="10.00">accelerators</text>
</a>
</g>
</g>
<!-- dir_c25976dd59f018586fa394770e220187 -->
<g id="node3" class="node"><title>dir_c25976dd59f018586fa394770e220187</title>
<g id="a_node3"><a xlink:href="dir_c25976dd59f018586fa394770e220187.html" target="_top" xlink:title="algorithms">
<polygon fill="white" stroke="black" points="229.5,-60 168.5,-60 168.5,-24 229.5,-24 229.5,-60"/>
<text text-anchor="middle" x="199" y="-39.5" font-family="Helvetica,sans-Serif" font-size="10.00">algorithms</text>
</a>
</g>
</g>
<!-- dir_0a4ab78d0dfadaad5727fc8341e11cbf -->
<g id="node4" class="node"><title>dir_0a4ab78d0dfadaad5727fc8341e11cbf</title>
<g id="a_node4"><a xlink:href="dir_0a4ab78d0dfadaad5727fc8341e11cbf.html" target="_top" xlink:title="io">
<polygon fill="white" stroke="black" points="150,-60 96,-60 96,-24 150,-24 150,-60"/>
<text text-anchor="middle" x="123" y="-39.5" font-family="Helvetica,sans-Serif" font-size="10.00">io</text>
</a>
</g>
</g>
<!-- dir_5a4ad34548b3015f9a8af1aa05564ec6 -->
<g id="node5" class="node"><title>dir_5a4ad34548b3015f9a8af1aa05564ec6</title>
<g id="a_node5"><a xlink:href="dir_5a4ad34548b3015f9a8af1aa05564ec6.html" target="_top" xlink:title="utils">
<polygon fill="white" stroke="black" points="78,-60 24,-60 24,-24 78,-24 78,-60"/>
<text text-anchor="middle" x="51" y="-39.5" font-family="Helvetica,sans-Serif" font-size="10.00">utils</text>
</a>
</g>
</g>
</g>
</svg>
