<?xml version="1.0" encoding="UTF-8" standalone="no"?>
<!DOCTYPE svg PUBLIC "-//W3C//DTD SVG 1.1//EN"
 "http://www.w3.org/Graphics/SVG/1.1/DTD/svg11.dtd">
<!-- Generated by graphviz version 2.36.0 (20140111.2315)
 -->
<!-- Title: Graphical Class Hierarchy Pages: 1 -->
<svg width="240pt" height="87pt"
 viewBox="0.00 0.00 240.00 87.00" xmlns="http://www.w3.org/2000/svg" xmlns:xlink="http://www.w3.org/1999/xlink">
<g id="graph0" class="graph" transform="scale(1 1) rotate(0) translate(4 83)">
<title>Graphical Class Hierarchy</title>
<polygon fill="white" stroke="none" points="-4,4 -4,-83 236,-83 236,4 -4,4"/>
<!-- Node1 -->
<g id="node1" class="node"><title>Node1</title>
<polygon fill="white" stroke="#bfbfbf" points="0,-29.5 0,-48.5 66,-48.5 66,-29.5 0,-29.5"/>
<text text-anchor="middle" x="33" y="-36.5" font-family="Helvetica,sans-Serif" font-size="10.00">AlignedBox</text>
</g>
<!-- Node2 -->
<g id="node2" class="node"><title>Node2</title>
<g id="a_node2"><a xlink:href="a00023.html" target="_top" xlink:title="GlobalRegistration\l::AABB\&lt; Scalar \&gt;">
<polygon fill="white" stroke="black" points="118.5,-49 118.5,-79 215.5,-79 215.5,-49 118.5,-49"/>
<text text-anchor="start" x="126.5" y="-67" font-family="Helvetica,sans-Serif" font-size="10.00">GlobalRegistration</text>
<text text-anchor="middle" x="167" y="-56" font-family="Helvetica,sans-Serif" font-size="10.00">::AABB&lt; Scalar &gt;</text>
</a>
</g>
</g>
<!-- Node1&#45;&gt;Node2 -->
<g id="edge1" class="edge"><title>Node1&#45;&gt;Node2</title>
<path fill="none" stroke="midnightblue" d="M76.209,-46.9941C89.6225,-49.5346 104.55,-52.3617 118.321,-54.9699"/>
<polygon fill="midnightblue" stroke="midnightblue" points="76.7675,-43.5378 66.2908,-45.1157 75.4648,-50.4155 76.7675,-43.5378"/>
</g>
<!-- Node3 -->
<g id="node3" class="node"><title>Node3</title>
<g id="a_node3"><a xlink:href="a00023.html" target="_top" xlink:title="GlobalRegistration\l::AABB\&lt; _Scalar, _Dim \&gt;">
<polygon fill="white" stroke="black" points="102,-0 102,-30 232,-30 232,-0 102,-0"/>
<text text-anchor="start" x="110" y="-18" font-family="Helvetica,sans-Serif" font-size="10.00">GlobalRegistration</text>
<text text-anchor="middle" x="167" y="-7" font-family="Helvetica,sans-Serif" font-size="10.00">::AABB&lt; _Scalar, _Dim &gt;</text>
</a>
</g>
</g>
<!-- Node1&#45;&gt;Node3 -->
<g id="edge2" class="edge"><title>Node1&#45;&gt;Node3</title>
<path fill="none" stroke="midnightblue" d="M76.2629,-31.3158C84.4058,-29.8353 93.1049,-28.2537 101.763,-26.6794"/>
<polygon fill="midnightblue" stroke="midnightblue" points="75.5034,-27.8965 66.2908,-33.1289 76.7557,-34.7835 75.5034,-27.8965"/>
</g>
</g>
</svg>
