<?xml version="1.0" encoding="UTF-8" standalone="no"?>
<!DOCTYPE svg PUBLIC "-//W3C//DTD SVG 1.1//EN"
 "http://www.w3.org/Graphics/SVG/1.1/DTD/svg11.dtd">
<!-- Generated by graphviz version 2.36.0 (20140111.2315)
 -->
<!-- Title: Graphical Class Hierarchy Pages: 1 -->
<svg width="244pt" height="87pt"
 viewBox="0.00 0.00 244.00 87.00" xmlns="http://www.w3.org/2000/svg" xmlns:xlink="http://www.w3.org/1999/xlink">
<g id="graph0" class="graph" transform="scale(1 1) rotate(0) translate(4 83)">
<title>Graphical Class Hierarchy</title>
<polygon fill="white" stroke="none" points="-4,4 -4,-83 240,-83 240,4 -4,4"/>
<!-- Node1 -->
<g id="node1" class="node"><title>Node1</title>
<g id="a_node1"><a xlink:href="a00037.html" target="_top" xlink:title="GlobalRegistration\l::Match4PCSBase">
<polygon fill="white" stroke="black" points="0,-24 0,-54 98,-54 98,-24 0,-24"/>
<text text-anchor="start" x="8" y="-42" font-family="Helvetica,sans-Serif" font-size="10.00">GlobalRegistration</text>
<text text-anchor="middle" x="49" y="-31" font-family="Helvetica,sans-Serif" font-size="10.00">::Match4PCSBase</text>
</a>
</g>
</g>
<!-- Node2 -->
<g id="node2" class="node"><title>Node2</title>
<g id="a_node2"><a xlink:href="a00036.html" target="_top" xlink:title="Class for the computation of the 4PCS algorithm. ">
<polygon fill="white" stroke="black" points="136.5,-49 136.5,-79 233.5,-79 233.5,-49 136.5,-49"/>
<text text-anchor="start" x="144.5" y="-67" font-family="Helvetica,sans-Serif" font-size="10.00">GlobalRegistration</text>
<text text-anchor="middle" x="185" y="-56" font-family="Helvetica,sans-Serif" font-size="10.00">::Match4PCS</text>
</a>
</g>
</g>
<!-- Node1&#45;&gt;Node2 -->
<g id="edge1" class="edge"><title>Node1&#45;&gt;Node2</title>
<path fill="none" stroke="midnightblue" d="M108.332,-49.8828C117.62,-51.6156 127.134,-53.3906 136.143,-55.0715"/>
<polygon fill="midnightblue" stroke="midnightblue" points="108.849,-46.419 98.3771,-48.0256 107.566,-53.3003 108.849,-46.419"/>
</g>
<!-- Node3 -->
<g id="node3" class="node"><title>Node3</title>
<g id="a_node3"><a xlink:href="a00039.html" target="_top" xlink:title="Class for the computation of the 4PCS algorithm. ">
<polygon fill="white" stroke="black" points="134.5,-0 134.5,-30 235.5,-30 235.5,-0 134.5,-0"/>
<text text-anchor="start" x="142.5" y="-18" font-family="Helvetica,sans-Serif" font-size="10.00">GlobalRegistration</text>
<text text-anchor="middle" x="185" y="-7" font-family="Helvetica,sans-Serif" font-size="10.00">::MatchSuper4PCS</text>
</a>
</g>
</g>
<!-- Node1&#45;&gt;Node3 -->
<g id="edge2" class="edge"><title>Node1&#45;&gt;Node3</title>
<path fill="none" stroke="midnightblue" d="M108.404,-28.5395C117.052,-26.9907 125.894,-25.407 134.341,-23.8941"/>
<polygon fill="midnightblue" stroke="midnightblue" points="107.603,-25.1272 98.3771,-30.3354 108.838,-32.0176 107.603,-25.1272"/>
</g>
</g>
</svg>
